*
*
G04 PADS 9.5 Build Number: 522968 generated Gerber (RS-274-X) file*
G04 PC Version=2.1*
*
%IN "3AXD10000379018E BAPU-4"*%
*
%MOMM*%
*
%FSLAX33Y33*%
*
*
*
*
G04 PC Standard Apertures*
*
*
G04 Thermal Relief Aperture macro.*
%AMTER*
1,1,$1,0,0*
1,0,$1-$2,0,0*
21,0,$3,$4,0,0,45*
21,0,$3,$4,0,0,135*
%
*
*
G04 Annular Aperture macro.*
%AMANN*
1,1,$1,0,0*
1,0,$2,0,0*
%
*
*
G04 Odd Aperture macro.*
%AMODD*
1,1,$1,0,0*
1,0,$1-0.005,0,0*
%
*
*
G04 PC Custom Aperture Macros*
*
*
*
*
*
*
G04 PC Aperture Table*
*
%ADD038C,0.254*%
%ADD082C,3*%
%ADD110C,0.2*%
%ADD111C,0.15*%
%ADD183R,1.45X1.45*%
%ADD208C,0.02*%
%ADD222R,1.4X1.95*%
%ADD223R,1.95X1.4*%
%ADD224C,2.05*%
%ADD225C,4.15*%
%ADD226C,0.95*%
%ADD227C,3.15*%
%ADD269R,1.6X1.3*%
%ADD270R,1.15X0.75*%
%ADD271R,0.75X1.15*%
%ADD272R,1X1.1*%
%ADD273R,1.1X1*%
%ADD276C,2.15*%
%ADD277R,2.3X2.35*%
%ADD279C,1.45*%
%ADD280R,1.95X1.95*%
%ADD281C,1.95*%
%ADD282R,1.75X0.75*%
%ADD287C,2.25*%
%ADD288R,3.55X1.45*%
%ADD289R,1.3X1.6*%
%ADD290C,1.65*%
%ADD292R,1.7X0.75*%
%ADD293R,0.75X1.7*%
%ADD296O,1.75X2*%
%ADD297R,1.3X0.75*%
%ADD298R,1.3X0.65*%
%ADD299R,2.25X2.25*%
%ADD304R,1.45X3.55*%
%ADD306R,1.7X2.45*%
%ADD327R,2.15X0.75*%
%ADD328R,1.75X1.75*%
%ADD329C,1.75*%
%ADD340C,9.35*%
%ADD342R,2.95X1.4*%
%ADD343R,3.35X2.4*%
%ADD344O,1.95X0.75*%
%ADD345R,1.4X2.95*%
%ADD346R,2.1X1.7*%
%ADD348C,3.35*%
%ADD349R,1.85X1.85*%
%ADD350C,1.85*%
%ADD364R,1.7X5.55*%
%ADD365C,4.75*%
%ADD366R,0.75X1.3*%
%ADD367R,0.65X1.3*%
%ADD368C,3.05*%
%ADD369C,8.15*%
%ADD370C,2.65*%
%ADD371C,4.65*%
%ADD380R,2.55X2.55*%
%ADD381C,2.55*%
*
*
*
*
G04 PC Circuitry*
G04 Layer Name 3AXD10000379018E BAPU-4 - circuitry*
%LPD*%
*
*
G04 PC Custom Flashes*
G04 Layer Name 3AXD10000379018E BAPU-4 - flashes*
%LPD*%
*
*
G04 PC Circuitry*
G04 Layer Name 3AXD10000379018E BAPU-4 - circuitry*
%LPD*%
*
G54D38*
G01X123245Y254000D02*
X126000Y251245D01*
X128754Y254000*
X128754D02*
X126000Y256754D01*
X126000D02*
X123245Y254000D01*
X125861Y251384D02*
X126138D01*
X125607Y251638D02*
X126392D01*
X125353Y251892D02*
X126646D01*
X125099Y252146D02*
X126900D01*
X124845Y252400D02*
X127154D01*
X124591Y252654D02*
X127408D01*
X124337Y252908D02*
X127662D01*
X124083Y253162D02*
X127916D01*
X123829Y253416D02*
X128170D01*
X123575Y253670D02*
X128424D01*
X123321Y253924D02*
X128678D01*
X123423Y254178D02*
X128576D01*
X123677Y254432D02*
X128322D01*
X123931Y254686D02*
X128068D01*
X124185Y254940D02*
X127814D01*
X124439Y255194D02*
X127560D01*
X124693Y255448D02*
X127306D01*
X124947Y255702D02*
X127052D01*
X125201Y255956D02*
X126798D01*
X125455Y256210D02*
X126544D01*
X125709Y256464D02*
X126290D01*
X125963Y256718D02*
X126036D01*
X123368Y253877D02*
Y254122D01*
X123622Y253623D02*
Y254376D01*
X123876Y253369D02*
Y254630D01*
X124130Y253115D02*
Y254884D01*
X124384Y252861D02*
Y255138D01*
X124638Y252607D02*
Y255392D01*
X124892Y252353D02*
Y255646D01*
X125146Y252099D02*
Y255900D01*
X125400Y251845D02*
Y256154D01*
X125654Y251591D02*
Y256408D01*
X125908Y251337D02*
Y256662D01*
X126162Y251407D02*
Y256592D01*
X126416Y251661D02*
Y256338D01*
X126670Y251915D02*
Y256084D01*
X126924Y252169D02*
Y255830D01*
X127178Y252423D02*
Y255576D01*
X127432Y252677D02*
Y255322D01*
X127686Y252931D02*
Y255068D01*
X127940Y253185D02*
Y254814D01*
X128194Y253439D02*
Y254560D01*
X128448Y253693D02*
Y254306D01*
X128702Y253947D02*
Y254052D01*
X123245Y212000D02*
X126000Y209245D01*
X128754Y212000*
X128754D02*
X126000Y214754D01*
X126000D02*
X123245Y212000D01*
X125771Y209474D02*
X126228D01*
X125517Y209728D02*
X126482D01*
X125263Y209982D02*
X126736D01*
X125009Y210236D02*
X126990D01*
X124755Y210490D02*
X127244D01*
X124501Y210744D02*
X127498D01*
X124247Y210998D02*
X127752D01*
X123993Y211252D02*
X128006D01*
X123739Y211506D02*
X128260D01*
X123485Y211760D02*
X128514D01*
X123259Y212014D02*
X128740D01*
X123513Y212268D02*
X128486D01*
X123767Y212522D02*
X128232D01*
X124021Y212776D02*
X127978D01*
X124275Y213030D02*
X127724D01*
X124529Y213284D02*
X127470D01*
X124783Y213538D02*
X127216D01*
X125037Y213792D02*
X126962D01*
X125291Y214046D02*
X126708D01*
X125545Y214300D02*
X126454D01*
X125799Y214554D02*
X126200D01*
X123368Y211877D02*
Y212122D01*
X123622Y211623D02*
Y212376D01*
X123876Y211369D02*
Y212630D01*
X124130Y211115D02*
Y212884D01*
X124384Y210861D02*
Y213138D01*
X124638Y210607D02*
Y213392D01*
X124892Y210353D02*
Y213646D01*
X125146Y210099D02*
Y213900D01*
X125400Y209845D02*
Y214154D01*
X125654Y209591D02*
Y214408D01*
X125908Y209337D02*
Y214662D01*
X126162Y209407D02*
Y214592D01*
X126416Y209661D02*
Y214338D01*
X126670Y209915D02*
Y214084D01*
X126924Y210169D02*
Y213830D01*
X127178Y210423D02*
Y213576D01*
X127432Y210677D02*
Y213322D01*
X127686Y210931D02*
Y213068D01*
X127940Y211185D02*
Y212814D01*
X128194Y211439D02*
Y212560D01*
X128448Y211693D02*
Y212306D01*
X128702Y211947D02*
Y212052D01*
X118754Y170000D02*
X116000Y172754D01*
X116000D02*
X113245Y170000D01*
X116000Y167245*
X118754Y170000*
X115935Y167310D02*
X116064D01*
X115681Y167564D02*
X116318D01*
X115427Y167818D02*
X116572D01*
X115173Y168072D02*
X116826D01*
X114919Y168326D02*
X117080D01*
X114665Y168580D02*
X117334D01*
X114411Y168834D02*
X117588D01*
X114157Y169088D02*
X117842D01*
X113903Y169342D02*
X118096D01*
X113649Y169596D02*
X118350D01*
X113395Y169850D02*
X118604D01*
X113349Y170104D02*
X118650D01*
X113603Y170358D02*
X118396D01*
X113857Y170612D02*
X118142D01*
X114111Y170866D02*
X117888D01*
X114365Y171120D02*
X117634D01*
X114619Y171374D02*
X117380D01*
X114873Y171628D02*
X117126D01*
X115127Y171882D02*
X116872D01*
X115381Y172136D02*
X116618D01*
X115635Y172390D02*
X116364D01*
X115889Y172644D02*
X116110D01*
X113462Y169783D02*
Y170216D01*
X113716Y169529D02*
Y170470D01*
X113970Y169275D02*
Y170724D01*
X114224Y169021D02*
Y170978D01*
X114478Y168767D02*
Y171232D01*
X114732Y168513D02*
Y171486D01*
X114986Y168259D02*
Y171740D01*
X115240Y168005D02*
Y171994D01*
X115494Y167751D02*
Y172248D01*
X115748Y167497D02*
Y172502D01*
X116002Y167247D02*
Y172752D01*
X116256Y167501D02*
Y172498D01*
X116510Y167755D02*
Y172244D01*
X116764Y168009D02*
Y171990D01*
X117018Y168263D02*
Y171736D01*
X117272Y168517D02*
Y171482D01*
X117526Y168771D02*
Y171228D01*
X117780Y169025D02*
Y170974D01*
X118034Y169279D02*
Y170720D01*
X118288Y169533D02*
Y170466D01*
X118542Y169787D02*
Y170212D01*
X118754Y128000D02*
X116000Y130754D01*
X116000D02*
X113245Y128000D01*
X116000Y125245*
X118754Y128000*
X115845Y125400D02*
X116154D01*
X115591Y125654D02*
X116408D01*
X115337Y125908D02*
X116662D01*
X115083Y126162D02*
X116916D01*
X114829Y126416D02*
X117170D01*
X114575Y126670D02*
X117424D01*
X114321Y126924D02*
X117678D01*
X114067Y127178D02*
X117932D01*
X113813Y127432D02*
X118186D01*
X113559Y127686D02*
X118440D01*
X113305Y127940D02*
X118694D01*
X113439Y128194D02*
X118560D01*
X113693Y128448D02*
X118306D01*
X113947Y128702D02*
X118052D01*
X114201Y128956D02*
X117798D01*
X114455Y129210D02*
X117544D01*
X114709Y129464D02*
X117290D01*
X114963Y129718D02*
X117036D01*
X115217Y129972D02*
X116782D01*
X115471Y130226D02*
X116528D01*
X115725Y130480D02*
X116274D01*
X115979Y130734D02*
X116020D01*
X113462Y127783D02*
Y128216D01*
X113716Y127529D02*
Y128470D01*
X113970Y127275D02*
Y128724D01*
X114224Y127021D02*
Y128978D01*
X114478Y126767D02*
Y129232D01*
X114732Y126513D02*
Y129486D01*
X114986Y126259D02*
Y129740D01*
X115240Y126005D02*
Y129994D01*
X115494Y125751D02*
Y130248D01*
X115748Y125497D02*
Y130502D01*
X116002Y125247D02*
Y130752D01*
X116256Y125501D02*
Y130498D01*
X116510Y125755D02*
Y130244D01*
X116764Y126009D02*
Y129990D01*
X117018Y126263D02*
Y129736D01*
X117272Y126517D02*
Y129482D01*
X117526Y126771D02*
Y129228D01*
X117780Y127025D02*
Y128974D01*
X118034Y127279D02*
Y128720D01*
X118288Y127533D02*
Y128466D01*
X118542Y127787D02*
Y128212D01*
G54D82*
X423000Y283000D03*
X113200Y273400D03*
X103000Y95000D03*
X423000D03*
X246500Y276000D03*
X111500Y106000D03*
G54D110*
X182390Y84075D02*
X182263Y84250D01*
X182263D02*
X182072Y84337D01*
X182072D02*
X181818D01*
X181818D02*
X181627Y84250D01*
X181500Y84075*
Y83900*
X181563Y83725*
X181563D02*
X181627Y83637D01*
X181627D02*
X181754Y83550D01*
X181754D02*
X182136Y83375D01*
X182263Y83287*
X182263D02*
X182327Y83200D01*
X182390Y83025*
X182390D02*
Y82762D01*
X182390D02*
X182263Y82587D01*
X182263D02*
X182072Y82500D01*
X182072D02*
X181818D01*
X181627Y82587*
X181627D02*
X181500Y82762D01*
X183345Y84337D02*
X183218Y84250D01*
X183090Y84075*
X183090D02*
X183027Y83900D01*
X182963Y83637*
X182963D02*
Y83200D01*
X182963D02*
X183027Y82937D01*
X183027D02*
X183090Y82762D01*
X183090D02*
X183218Y82587D01*
X183218D02*
X183345Y82500D01*
X183600*
X183727Y82587*
X183727D02*
X183854Y82762D01*
X183854D02*
X183918Y82937D01*
X183918D02*
X183981Y83200D01*
X183981D02*
Y83637D01*
X183981D02*
X183918Y83900D01*
X183854Y84075*
X183854D02*
X183727Y84250D01*
X183600Y84337*
X183600D02*
X183345D01*
X184554D02*
Y82500D01*
X184554D02*
X185318D01*
X185890Y84337D02*
Y82500D01*
Y84337D02*
X186336D01*
X186336D02*
X186527Y84250D01*
X186654Y84075*
X186654D02*
X186718Y83900D01*
X186781Y83637*
X186781D02*
Y83200D01*
X186781D02*
X186718Y82937D01*
X186718D02*
X186654Y82762D01*
X186654D02*
X186527Y82587D01*
X186527D02*
X186336Y82500D01*
X185890*
X187354Y84337D02*
Y82500D01*
Y84337D02*
X188181D01*
X187354Y83462D02*
X187863D01*
X187354Y82500D02*
X188181D01*
X188754Y84337D02*
Y82500D01*
Y84337D02*
X189327D01*
X189327D02*
X189518Y84250D01*
X189581Y84162*
X189581D02*
X189645Y83987D01*
X189645D02*
Y83812D01*
X189645D02*
X189581Y83637D01*
X189581D02*
X189518Y83550D01*
X189327Y83462*
X189327D02*
X188754D01*
X189200D02*
X189645Y82500D01*
X191681Y84337D02*
Y82500D01*
Y84337D02*
X192190Y82500D01*
X192700Y84337D02*
X192190Y82500D01*
X192700Y84337D02*
Y82500D01*
X193781Y84337D02*
X193272Y82500D01*
X193781Y84337D02*
X194290Y82500D01*
X193463Y83112D02*
X194100D01*
X195754Y84075D02*
X195627Y84250D01*
X195436Y84337*
X195436D02*
X195181D01*
X195181D02*
X194990Y84250D01*
X194990D02*
X194863Y84075D01*
X194863D02*
Y83900D01*
X194863D02*
X194927Y83725D01*
X194990Y83637*
X194990D02*
X195118Y83550D01*
X195500Y83375*
X195627Y83287*
X195627D02*
X195690Y83200D01*
X195690D02*
X195754Y83025D01*
X195754D02*
Y82762D01*
X195754D02*
X195627Y82587D01*
X195627D02*
X195436Y82500D01*
X195181*
X195181D02*
X194990Y82587D01*
X194990D02*
X194863Y82762D01*
X196327Y84337D02*
Y82500D01*
X197218Y84337D02*
X196327Y83112D01*
X196645Y83550D02*
X197218Y82500D01*
X199254Y84337D02*
Y82500D01*
X199254D02*
X200018D01*
X201100Y84337D02*
X200590Y82500D01*
X201100Y84337D02*
X201609Y82500D01*
X200781Y83112D02*
X201418D01*
X202181Y84337D02*
X202690Y83462D01*
X202690D02*
Y82500D01*
X203200Y84337D02*
X202690Y83462D01*
X203772Y84337D02*
Y82500D01*
Y84337D02*
X204600D01*
X203772Y83462D02*
X204281D01*
X203772Y82500D02*
X204600D01*
X205172Y84337D02*
Y82500D01*
Y84337D02*
X205745D01*
X205745D02*
X205936Y84250D01*
X206000Y84162*
X206000D02*
X206063Y83987D01*
X206063D02*
Y83812D01*
X206063D02*
X206000Y83637D01*
X206000D02*
X205936Y83550D01*
X205745Y83462*
X205745D02*
X205172D01*
X205618D02*
X206063Y82500D01*
X208100Y83987D02*
X208227Y84075D01*
X208418Y84337*
X208418D02*
Y82500D01*
X135900Y89943D02*
X135500Y88500D01*
X135900Y89943D02*
X136300Y88500D01*
X135650Y88981D02*
X136150D01*
X136750Y89943D02*
Y88500D01*
Y89943D02*
X137200D01*
X137200D02*
X137350Y89875D01*
X137400Y89806*
X137450Y89668*
X137450D02*
Y89531D01*
X137400Y89393*
X137400D02*
X137350Y89325D01*
X137200Y89256*
X136750D02*
X137200D01*
X137350Y89187*
X137350D02*
X137400Y89118D01*
X137400D02*
X137450Y88981D01*
Y88775*
X137400Y88637*
X137400D02*
X137350Y88568D01*
X137350D02*
X137200Y88500D01*
X136750*
X137900Y89943D02*
Y88500D01*
Y89943D02*
X138350D01*
X138350D02*
X138500Y89875D01*
X138550Y89806*
X138600Y89668*
X138600D02*
Y89531D01*
X138550Y89393*
X138550D02*
X138500Y89325D01*
X138350Y89256*
X137900D02*
X138350D01*
X138500Y89187*
X138500D02*
X138550Y89118D01*
X138550D02*
X138600Y88981D01*
Y88775*
X138550Y88637*
X138550D02*
X138500Y88568D01*
X138500D02*
X138350Y88500D01*
X137900*
X140500Y89943D02*
X140400Y89875D01*
X140300Y89737*
X140300D02*
X140250Y89600D01*
X140200Y89393*
X140200D02*
Y89050D01*
X140250Y88843*
X140250D02*
X140300Y88706D01*
X140400Y88568*
X140400D02*
X140500Y88500D01*
X140700*
X140800Y88568*
X140800D02*
X140900Y88706D01*
X140950Y88843*
X140950D02*
X141000Y89050D01*
Y89393*
X141000D02*
X140950Y89600D01*
X140900Y89737*
X140900D02*
X140800Y89875D01*
X140700Y89943*
X140700D02*
X140500D01*
X141500Y89462D02*
X141800Y88500D01*
X142100Y89462D02*
X141800Y88500D01*
X141700Y88225*
X141600Y88087*
X141600D02*
X141500Y88018D01*
X141500D02*
X141450D01*
X135500Y87443D02*
Y86000D01*
Y87443D02*
X135850D01*
X135850D02*
X136000Y87375D01*
X136100Y87237*
X136100D02*
X136150Y87100D01*
X136200Y86893*
X136200D02*
Y86550D01*
X136150Y86343*
X136150D02*
X136100Y86206D01*
X136000Y86068*
X136000D02*
X135850Y86000D01*
X135500*
X136650Y86962D02*
Y86000D01*
Y86550D02*
X136700Y86756D01*
X136800Y86893*
X136800D02*
X136900Y86962D01*
X136900D02*
X137050D01*
X137500Y87443D02*
X137550Y87375D01*
X137600Y87443*
X137600D02*
X137550Y87512D01*
X137550D02*
X137500Y87443D01*
X137550Y86962D02*
Y86000D01*
X138050Y86962D02*
X138350Y86000D01*
X138650Y86962D02*
X138350Y86000D01*
X139100Y86550D02*
X139700D01*
Y86687*
X139700D02*
X139650Y86825D01*
X139600Y86893*
X139600D02*
X139500Y86962D01*
X139500D02*
X139350D01*
X139350D02*
X139250Y86893D01*
X139250D02*
X139150Y86756D01*
X139100Y86550*
Y86412*
X139100D02*
X139150Y86206D01*
X139250Y86068*
X139250D02*
X139350Y86000D01*
X139500*
X139600Y86068*
X139600D02*
X139700Y86206D01*
X140700Y86756D02*
X140650Y86893D01*
X140650D02*
X140500Y86962D01*
X140500D02*
X140350D01*
X140350D02*
X140200Y86893D01*
X140200D02*
X140150Y86756D01*
X140200Y86618*
X140200D02*
X140300Y86550D01*
X140550Y86481*
X140650Y86412*
X140650D02*
X140700Y86275D01*
Y86206*
X140650Y86068*
X140650D02*
X140500Y86000D01*
X140350*
X140200Y86068*
X140200D02*
X140150Y86206D01*
X135500Y84943D02*
Y83500D01*
X136200Y84943D02*
Y83500D01*
X135500Y84256D02*
X136200D01*
X136650Y84050D02*
X137250D01*
Y84187*
X137250D02*
X137200Y84325D01*
X137150Y84393*
X137150D02*
X137050Y84462D01*
X137050D02*
X136900D01*
X136900D02*
X136800Y84393D01*
X136800D02*
X136700Y84256D01*
X136650Y84050*
Y83912*
X136650D02*
X136700Y83706D01*
X136800Y83568*
X136800D02*
X136900Y83500D01*
X137050*
X137150Y83568*
X137150D02*
X137250Y83706D01*
X137700Y84943D02*
Y83500D01*
X138700Y84256D02*
X138650Y84393D01*
X138650D02*
X138500Y84462D01*
X138500D02*
X138350D01*
X138350D02*
X138200Y84393D01*
X138200D02*
X138150Y84256D01*
X138200Y84118*
X138200D02*
X138300Y84050D01*
X138550Y83981*
X138650Y83912*
X138650D02*
X138700Y83775D01*
Y83706*
X138650Y83568*
X138650D02*
X138500Y83500D01*
X138350*
X138200Y83568*
X138200D02*
X138150Y83706D01*
X139150Y84943D02*
X139200Y84875D01*
X139250Y84943*
X139250D02*
X139200Y85012D01*
X139200D02*
X139150Y84943D01*
X139200Y84462D02*
Y83500D01*
X139700Y84462D02*
Y83500D01*
Y84187D02*
X139850Y84393D01*
X139850D02*
X139950Y84462D01*
X139950D02*
X140100D01*
X140100D02*
X140200Y84393D01*
X140200D02*
X140250Y84187D01*
X140250D02*
Y83500D01*
X140700Y84943D02*
Y83500D01*
X141200Y84462D02*
X140700Y83775D01*
X140900Y84050D02*
X141250Y83500D01*
X141700Y84943D02*
X141750Y84875D01*
X141800Y84943*
X141800D02*
X141750Y85012D01*
X141750D02*
X141700Y84943D01*
X141750Y84462D02*
Y83500D01*
X142350Y83568D02*
X142300Y83500D01*
X142250Y83568*
X142250D02*
X142300Y83637D01*
X142300D02*
X142350Y83568D01*
X142350D02*
Y83431D01*
X142300Y83293*
X142300D02*
X142250Y83225D01*
X143950Y84943D02*
Y83500D01*
Y84943D02*
X144600D01*
X143950Y84256D02*
X144350D01*
X145050Y84943D02*
X145100Y84875D01*
X145150Y84943*
X145150D02*
X145100Y85012D01*
X145100D02*
X145050Y84943D01*
X145100Y84462D02*
Y83500D01*
X145600Y84462D02*
Y83500D01*
Y84187D02*
X145750Y84393D01*
X145750D02*
X145850Y84462D01*
X145850D02*
X146000D01*
X146000D02*
X146100Y84393D01*
X146100D02*
X146150Y84187D01*
X146150D02*
Y83500D01*
X146600Y84943D02*
Y83500D01*
X147650Y84462D02*
Y83500D01*
Y84256D02*
X147550Y84393D01*
X147550D02*
X147450Y84462D01*
X147450D02*
X147300D01*
X147300D02*
X147200Y84393D01*
X147200D02*
X147100Y84256D01*
X147050Y84050*
Y83912*
X147050D02*
X147100Y83706D01*
X147200Y83568*
X147200D02*
X147300Y83500D01*
X147450*
X147550Y83568*
X147550D02*
X147650Y83706D01*
X148100Y84462D02*
Y83500D01*
Y84187D02*
X148250Y84393D01*
X148250D02*
X148350Y84462D01*
X148350D02*
X148500D01*
X148500D02*
X148600Y84393D01*
X148600D02*
X148650Y84187D01*
X148650D02*
Y83500D01*
X149700Y84943D02*
Y83500D01*
Y84256D02*
X149600Y84393D01*
X149600D02*
X149500Y84462D01*
X149500D02*
X149350D01*
X149350D02*
X149250Y84393D01*
X149250D02*
X149150Y84256D01*
X149100Y84050*
Y83912*
X149100D02*
X149150Y83706D01*
X149250Y83568*
X149250D02*
X149350Y83500D01*
X149500*
X149600Y83568*
X149600D02*
X149700Y83706D01*
X151500Y90484D02*
Y89500D01*
Y90484D02*
X151738D01*
X151738D02*
X151840Y90437D01*
X151840D02*
X151909Y90343D01*
X151909D02*
X151943Y90250D01*
X151977Y90109*
Y89875*
X151943Y89734*
X151909Y89640*
X151909D02*
X151840Y89546D01*
X151840D02*
X151738Y89500D01*
X151738D02*
X151500D01*
X152284Y90484D02*
Y89500D01*
Y90484D02*
X152590D01*
X152590D02*
X152693Y90437D01*
X152693D02*
X152727Y90390D01*
X152727D02*
X152761Y90296D01*
X152761D02*
Y90203D01*
X152727Y90109*
X152693Y90062*
X152693D02*
X152590Y90015D01*
X152590D02*
X152284D01*
X152522D02*
X152761Y89500D01*
X153340Y90484D02*
X153068Y89500D01*
X153340Y90484D02*
X153613Y89500D01*
X153170Y89828D02*
X153511D01*
X153920Y90484D02*
X154090Y89500D01*
X154261Y90484D02*
X154090Y89500D01*
X154261Y90484D02*
X154431Y89500D01*
X154602Y90484D02*
X154431Y89500D01*
X154909Y90484D02*
Y89500D01*
Y90484D02*
X155386Y89500D01*
Y90484D02*
Y89500D01*
X152011Y87750D02*
X151977Y87843D01*
X151977D02*
X151909Y87937D01*
X151909D02*
X151840Y87984D01*
X151840D02*
X151704D01*
X151704D02*
X151636Y87937D01*
X151636D02*
X151568Y87843D01*
X151568D02*
X151534Y87750D01*
X151500Y87609*
Y87375*
X151534Y87234*
X151568Y87140*
X151568D02*
X151636Y87046D01*
X151636D02*
X151704Y87000D01*
X151704D02*
X151840D01*
X151840D02*
X151909Y87046D01*
X151909D02*
X151977Y87140D01*
X151977D02*
X152011Y87234D01*
X152318Y87984D02*
Y87000D01*
X152795Y87984D02*
Y87000D01*
X152318Y87515D02*
X152795D01*
X153102Y87984D02*
Y87000D01*
Y87984D02*
X153545D01*
X153102Y87515D02*
X153375D01*
X153102Y87000D02*
X153545D01*
X154363Y87750D02*
X154329Y87843D01*
X154329D02*
X154261Y87937D01*
X154261D02*
X154193Y87984D01*
X154056*
X154056D02*
X153988Y87937D01*
X153988D02*
X153920Y87843D01*
X153920D02*
X153886Y87750D01*
X153852Y87609*
Y87375*
X153886Y87234*
X153920Y87140*
X153920D02*
X153988Y87046D01*
X153988D02*
X154056Y87000D01*
X154056D02*
X154193D01*
X154261Y87046*
X154261D02*
X154329Y87140D01*
X154329D02*
X154363Y87234D01*
X154670Y87984D02*
Y87000D01*
X155147Y87984D02*
X154670Y87328D01*
X154840Y87562D02*
X155147Y87000D01*
X155454Y87984D02*
Y87000D01*
Y87984D02*
X155897D01*
X155454Y87515D02*
X155727D01*
X155454Y87000D02*
X155897D01*
X156204Y87984D02*
Y87000D01*
Y87984D02*
X156443D01*
X156545Y87937*
X156545D02*
X156613Y87843D01*
X156613D02*
X156647Y87750D01*
X156647D02*
X156681Y87609D01*
X156681D02*
Y87375D01*
X156681D02*
X156647Y87234D01*
X156647D02*
X156613Y87140D01*
X156613D02*
X156545Y87046D01*
X156545D02*
X156443Y87000D01*
X156204*
X151772Y85484D02*
X151500Y84500D01*
X151772Y85484D02*
X152045Y84500D01*
X151602Y84828D02*
X151943D01*
X152352Y85484D02*
Y84500D01*
Y85484D02*
X152659D01*
X152761Y85437*
X152761D02*
X152795Y85390D01*
X152795D02*
X152829Y85296D01*
X152829D02*
Y85156D01*
X152829D02*
X152795Y85062D01*
X152795D02*
X152761Y85015D01*
X152761D02*
X152659Y84968D01*
X152659D02*
X152352D01*
X153136Y85484D02*
Y84500D01*
Y85484D02*
X153443D01*
X153545Y85437*
X153545D02*
X153579Y85390D01*
X153579D02*
X153613Y85296D01*
X153613D02*
Y85156D01*
X153613D02*
X153579Y85062D01*
X153579D02*
X153545Y85015D01*
X153545D02*
X153443Y84968D01*
X153443D02*
X153136D01*
X153920Y85484D02*
Y84500D01*
Y85484D02*
X154227D01*
X154329Y85437*
X154329D02*
X154363Y85390D01*
X154363D02*
X154397Y85296D01*
X154397D02*
Y85203D01*
X154397D02*
X154363Y85109D01*
X154363D02*
X154329Y85062D01*
X154329D02*
X154227Y85015D01*
X154227D02*
X153920D01*
X154159D02*
X154397Y84500D01*
X154909Y85484D02*
X154840Y85437D01*
X154840D02*
X154772Y85343D01*
X154772D02*
X154738Y85250D01*
X154738D02*
X154704Y85109D01*
X154704D02*
Y84875D01*
X154704D02*
X154738Y84734D01*
X154738D02*
X154772Y84640D01*
X154772D02*
X154840Y84546D01*
X154840D02*
X154909Y84500D01*
X155045*
X155113Y84546*
X155113D02*
X155181Y84640D01*
X155181D02*
X155215Y84734D01*
X155215D02*
X155250Y84875D01*
Y85109*
X155215Y85250*
X155215D02*
X155181Y85343D01*
X155181D02*
X155113Y85437D01*
X155113D02*
X155045Y85484D01*
X154909*
X155556D02*
X155829Y84500D01*
X156102Y85484D02*
X155829Y84500D01*
X156409Y85484D02*
Y84500D01*
Y85484D02*
X156852D01*
X156409Y85015D02*
X156681D01*
X156409Y84500D02*
X156852D01*
X157159Y85484D02*
Y84500D01*
Y85484D02*
X157397D01*
X157397D02*
X157500Y85437D01*
X157500D02*
X157568Y85343D01*
X157568D02*
X157602Y85250D01*
X157636Y85109*
Y84875*
X157602Y84734*
X157568Y84640*
X157568D02*
X157500Y84546D01*
X157500D02*
X157397Y84500D01*
X157397D02*
X157159D01*
X151500Y82984D02*
Y82000D01*
Y82984D02*
X151806D01*
X151806D02*
X151909Y82937D01*
X151909D02*
X151943Y82890D01*
X151943D02*
X151977Y82796D01*
X151977D02*
Y82703D01*
X151943Y82609*
X151909Y82562*
X151909D02*
X151806Y82515D01*
X151806D02*
X151500D01*
X151738D02*
X151977Y82000D01*
X152284Y82984D02*
Y82000D01*
Y82984D02*
X152727D01*
X152284Y82515D02*
X152556D01*
X152284Y82000D02*
X152727D01*
X153034Y82984D02*
X153306Y82000D01*
X153579Y82984D02*
X153306Y82000D01*
X153886Y82984D02*
Y82000D01*
X154670Y82843D02*
X154602Y82937D01*
X154602D02*
X154500Y82984D01*
X154363*
X154363D02*
X154261Y82937D01*
X154261D02*
X154193Y82843D01*
X154193D02*
Y82750D01*
X154227Y82656*
X154261Y82609*
X154329Y82562*
X154329D02*
X154534Y82468D01*
X154534D02*
X154602Y82421D01*
X154602D02*
X154636Y82375D01*
X154670Y82281*
Y82140*
X154670D02*
X154602Y82046D01*
X154602D02*
X154500Y82000D01*
X154363*
X154363D02*
X154261Y82046D01*
X154261D02*
X154193Y82140D01*
X154977Y82984D02*
Y82000D01*
Y82984D02*
X155420D01*
X154977Y82515D02*
X155250D01*
X154977Y82000D02*
X155420D01*
X155727Y82984D02*
Y82000D01*
Y82984D02*
X155965D01*
X155965D02*
X156068Y82937D01*
X156068D02*
X156136Y82843D01*
X156136D02*
X156170Y82750D01*
X156204Y82609*
X156204D02*
Y82375D01*
X156204D02*
X156170Y82234D01*
X156136Y82140*
X156136D02*
X156068Y82046D01*
X156068D02*
X155965Y82000D01*
X155965D02*
X155727D01*
X159000Y90296D02*
X159068Y90343D01*
X159068D02*
X159170Y90484D01*
Y89500*
X159920Y90156D02*
X159886Y90015D01*
X159886D02*
X159818Y89921D01*
X159818D02*
X159715Y89875D01*
X159715D02*
X159681D01*
X159681D02*
X159579Y89921D01*
X159579D02*
X159511Y90015D01*
X159511D02*
X159477Y90156D01*
Y90203*
X159511Y90343*
X159511D02*
X159579Y90437D01*
X159579D02*
X159681Y90484D01*
X159681D02*
X159715D01*
X159715D02*
X159818Y90437D01*
X159818D02*
X159886Y90343D01*
X159886D02*
X159920Y90156D01*
Y89921*
X159920D02*
X159886Y89687D01*
X159886D02*
X159818Y89546D01*
X159818D02*
X159715Y89500D01*
X159715D02*
X159647D01*
X159647D02*
X159545Y89546D01*
X159545D02*
X159511Y89640D01*
X160261Y89593D02*
X160227Y89546D01*
X160227D02*
X160261Y89500D01*
X160295Y89546*
X160295D02*
X160261Y89593D01*
X160806Y90484D02*
X160704Y90437D01*
X160704D02*
X160636Y90296D01*
X160636D02*
X160602Y90062D01*
X160602D02*
Y89921D01*
X160602D02*
X160636Y89687D01*
X160636D02*
X160704Y89546D01*
X160704D02*
X160806Y89500D01*
X160806D02*
X160875D01*
X160977Y89546*
X160977D02*
X161045Y89687D01*
X161045D02*
X161079Y89921D01*
X161079D02*
Y90062D01*
X161079D02*
X161045Y90296D01*
X161045D02*
X160977Y90437D01*
X160977D02*
X160875Y90484D01*
X160806*
X161829D02*
X161488D01*
X161488D02*
X161454Y90062D01*
X161454D02*
X161488Y90109D01*
X161488D02*
X161590Y90156D01*
X161590D02*
X161693D01*
X161795Y90109*
X161863Y90015*
X161863D02*
X161897Y89875D01*
X161897D02*
X161863Y89781D01*
X161863D02*
X161829Y89640D01*
X161829D02*
X161761Y89546D01*
X161761D02*
X161659Y89500D01*
X161556*
X161556D02*
X161454Y89546D01*
X161454D02*
X161420Y89593D01*
X161420D02*
X161386Y89687D01*
X162238Y89593D02*
X162204Y89546D01*
X162204D02*
X162238Y89500D01*
X162238D02*
X162272Y89546D01*
X162272D02*
X162238Y89593D01*
X162613Y90250D02*
Y90296D01*
X162613D02*
X162647Y90390D01*
X162647D02*
X162681Y90437D01*
X162681D02*
X162750Y90484D01*
X162886*
X162954Y90437*
X162954D02*
X162988Y90390D01*
X162988D02*
X163022Y90296D01*
X163022D02*
Y90203D01*
X163022D02*
X162988Y90109D01*
X162988D02*
X162920Y89968D01*
X162920D02*
X162579Y89500D01*
X162579D02*
X163056D01*
X163568Y90484D02*
X163465Y90437D01*
X163465D02*
X163397Y90296D01*
X163397D02*
X163363Y90062D01*
X163363D02*
Y89921D01*
X163363D02*
X163397Y89687D01*
X163397D02*
X163465Y89546D01*
X163465D02*
X163568Y89500D01*
X163636*
X163738Y89546*
X163738D02*
X163806Y89687D01*
X163806D02*
X163840Y89921D01*
X163840D02*
Y90062D01*
X163840D02*
X163806Y90296D01*
X163806D02*
X163738Y90437D01*
X163738D02*
X163636Y90484D01*
X163568*
X164147Y90296D02*
X164215Y90343D01*
X164215D02*
X164318Y90484D01*
Y89500*
X165068Y90484D02*
X164727D01*
X164693Y90062*
X164693D02*
X164727Y90109D01*
X164829Y90156*
X164829D02*
X164931D01*
X164931D02*
X165034Y90109D01*
X165102Y90015*
X165102D02*
X165136Y89875D01*
X165102Y89781*
X165068Y89640*
X165068D02*
X165000Y89546D01*
X165000D02*
X164897Y89500D01*
X164897D02*
X164795D01*
X164693Y89546*
X164693D02*
X164659Y89593D01*
X164659D02*
X164625Y89687D01*
X159000Y87796D02*
X159068Y87843D01*
X159068D02*
X159170Y87984D01*
Y87000*
X159647Y87984D02*
X159545Y87937D01*
X159545D02*
X159511Y87843D01*
X159511D02*
Y87750D01*
X159545Y87656*
X159613Y87609*
X159613D02*
X159750Y87562D01*
X159750D02*
X159852Y87515D01*
X159852D02*
X159920Y87421D01*
X159920D02*
X159954Y87328D01*
X159954D02*
Y87187D01*
X159954D02*
X159920Y87093D01*
X159920D02*
X159886Y87046D01*
X159886D02*
X159784Y87000D01*
X159647*
X159647D02*
X159545Y87046D01*
X159545D02*
X159511Y87093D01*
X159511D02*
X159477Y87187D01*
X159477D02*
Y87328D01*
X159511Y87421*
X159511D02*
X159579Y87515D01*
X159579D02*
X159681Y87562D01*
X159681D02*
X159818Y87609D01*
X159886Y87656*
X159920Y87750*
Y87843*
X159920D02*
X159886Y87937D01*
X159886D02*
X159784Y87984D01*
X159647*
X160295Y87093D02*
X160261Y87046D01*
X160261D02*
X160295Y87000D01*
X160329Y87046*
X160329D02*
X160295Y87093D01*
X160840Y87984D02*
X160738Y87937D01*
X160738D02*
X160670Y87796D01*
X160670D02*
X160636Y87562D01*
X160636D02*
Y87421D01*
X160636D02*
X160670Y87187D01*
X160670D02*
X160738Y87046D01*
X160738D02*
X160840Y87000D01*
X160840D02*
X160909D01*
X161011Y87046*
X161011D02*
X161079Y87187D01*
X161079D02*
X161113Y87421D01*
X161113D02*
Y87562D01*
X161113D02*
X161079Y87796D01*
X161079D02*
X161011Y87937D01*
X161011D02*
X160909Y87984D01*
X160840*
X161863D02*
X161522D01*
X161522D02*
X161488Y87562D01*
X161488D02*
X161522Y87609D01*
X161522D02*
X161625Y87656D01*
X161727*
X161829Y87609*
X161829D02*
X161897Y87515D01*
X161897D02*
X161931Y87375D01*
X161931D02*
X161897Y87281D01*
X161897D02*
X161863Y87140D01*
X161863D02*
X161795Y87046D01*
X161795D02*
X161693Y87000D01*
X161590*
X161590D02*
X161488Y87046D01*
X161488D02*
X161454Y87093D01*
X161454D02*
X161420Y87187D01*
X162272Y87093D02*
X162238Y87046D01*
X162238D02*
X162272Y87000D01*
X162272D02*
X162306Y87046D01*
X162306D02*
X162272Y87093D01*
X162647Y87750D02*
Y87796D01*
X162647D02*
X162681Y87890D01*
X162681D02*
X162715Y87937D01*
X162715D02*
X162784Y87984D01*
X162920*
X162988Y87937*
X162988D02*
X163022Y87890D01*
X163022D02*
X163056Y87796D01*
X163056D02*
Y87703D01*
X163056D02*
X163022Y87609D01*
X163022D02*
X162954Y87468D01*
X162954D02*
X162613Y87000D01*
X162613D02*
X163090D01*
X163602Y87984D02*
X163500Y87937D01*
X163500D02*
X163431Y87796D01*
X163431D02*
X163397Y87562D01*
X163397D02*
Y87421D01*
X163397D02*
X163431Y87187D01*
X163431D02*
X163500Y87046D01*
X163500D02*
X163602Y87000D01*
X163670*
X163772Y87046*
X163772D02*
X163840Y87187D01*
X163840D02*
X163875Y87421D01*
X163875D02*
Y87562D01*
X163875D02*
X163840Y87796D01*
X163840D02*
X163772Y87937D01*
X163772D02*
X163670Y87984D01*
X163602*
X164181Y87796D02*
X164250Y87843D01*
X164250D02*
X164352Y87984D01*
Y87000*
X165068Y87843D02*
X165034Y87937D01*
X165034D02*
X164931Y87984D01*
X164931D02*
X164863D01*
X164863D02*
X164761Y87937D01*
X164761D02*
X164693Y87796D01*
X164693D02*
X164659Y87562D01*
X164659D02*
Y87328D01*
X164693Y87140*
X164693D02*
X164761Y87046D01*
X164761D02*
X164863Y87000D01*
X164863D02*
X164897D01*
X164897D02*
X165000Y87046D01*
X165000D02*
X165068Y87140D01*
X165068D02*
X165102Y87281D01*
Y87328*
X165068Y87468*
X165068D02*
X165000Y87562D01*
X165000D02*
X164897Y87609D01*
X164897D02*
X164863D01*
X164863D02*
X164761Y87562D01*
X164761D02*
X164693Y87468D01*
X164693D02*
X164659Y87328D01*
X159000Y85296D02*
X159068Y85343D01*
X159068D02*
X159170Y85484D01*
Y84500*
X159647Y85484D02*
X159545Y85437D01*
X159545D02*
X159511Y85343D01*
X159511D02*
Y85250D01*
X159545Y85156*
X159613Y85109*
X159613D02*
X159750Y85062D01*
X159750D02*
X159852Y85015D01*
X159852D02*
X159920Y84921D01*
X159920D02*
X159954Y84828D01*
X159954D02*
Y84687D01*
X159954D02*
X159920Y84593D01*
X159920D02*
X159886Y84546D01*
X159886D02*
X159784Y84500D01*
X159647*
X159647D02*
X159545Y84546D01*
X159545D02*
X159511Y84593D01*
X159511D02*
X159477Y84687D01*
X159477D02*
Y84828D01*
X159511Y84921*
X159511D02*
X159579Y85015D01*
X159579D02*
X159681Y85062D01*
X159681D02*
X159818Y85109D01*
X159886Y85156*
X159920Y85250*
Y85343*
X159920D02*
X159886Y85437D01*
X159886D02*
X159784Y85484D01*
X159647*
X160295Y84593D02*
X160261Y84546D01*
X160261D02*
X160295Y84500D01*
X160329Y84546*
X160329D02*
X160295Y84593D01*
X160840Y85484D02*
X160738Y85437D01*
X160738D02*
X160670Y85296D01*
X160670D02*
X160636Y85062D01*
X160636D02*
Y84921D01*
X160636D02*
X160670Y84687D01*
X160670D02*
X160738Y84546D01*
X160738D02*
X160840Y84500D01*
X160840D02*
X160909D01*
X161011Y84546*
X161011D02*
X161079Y84687D01*
X161079D02*
X161113Y84921D01*
X161113D02*
Y85062D01*
X161113D02*
X161079Y85296D01*
X161079D02*
X161011Y85437D01*
X161011D02*
X160909Y85484D01*
X160840*
X161863D02*
X161522D01*
X161522D02*
X161488Y85062D01*
X161488D02*
X161522Y85109D01*
X161522D02*
X161625Y85156D01*
X161727*
X161829Y85109*
X161829D02*
X161897Y85015D01*
X161897D02*
X161931Y84875D01*
X161931D02*
X161897Y84781D01*
X161897D02*
X161863Y84640D01*
X161863D02*
X161795Y84546D01*
X161795D02*
X161693Y84500D01*
X161590*
X161590D02*
X161488Y84546D01*
X161488D02*
X161454Y84593D01*
X161454D02*
X161420Y84687D01*
X162272Y84593D02*
X162238Y84546D01*
X162238D02*
X162272Y84500D01*
X162272D02*
X162306Y84546D01*
X162306D02*
X162272Y84593D01*
X162647Y85250D02*
Y85296D01*
X162647D02*
X162681Y85390D01*
X162681D02*
X162715Y85437D01*
X162715D02*
X162784Y85484D01*
X162920*
X162988Y85437*
X162988D02*
X163022Y85390D01*
X163022D02*
X163056Y85296D01*
X163056D02*
Y85203D01*
X163056D02*
X163022Y85109D01*
X163022D02*
X162954Y84968D01*
X162954D02*
X162613Y84500D01*
X162613D02*
X163090D01*
X163602Y85484D02*
X163500Y85437D01*
X163500D02*
X163431Y85296D01*
X163431D02*
X163397Y85062D01*
X163397D02*
Y84921D01*
X163397D02*
X163431Y84687D01*
X163431D02*
X163500Y84546D01*
X163500D02*
X163602Y84500D01*
X163670*
X163772Y84546*
X163772D02*
X163840Y84687D01*
X163840D02*
X163875Y84921D01*
X163875D02*
Y85062D01*
X163875D02*
X163840Y85296D01*
X163840D02*
X163772Y85437D01*
X163772D02*
X163670Y85484D01*
X163602*
X164181Y85296D02*
X164250Y85343D01*
X164250D02*
X164352Y85484D01*
Y84500*
X165068Y85343D02*
X165034Y85437D01*
X165034D02*
X164931Y85484D01*
X164931D02*
X164863D01*
X164863D02*
X164761Y85437D01*
X164761D02*
X164693Y85296D01*
X164693D02*
X164659Y85062D01*
X164659D02*
Y84828D01*
X164693Y84640*
X164693D02*
X164761Y84546D01*
X164761D02*
X164863Y84500D01*
X164863D02*
X164897D01*
X164897D02*
X165000Y84546D01*
X165000D02*
X165068Y84640D01*
X165068D02*
X165102Y84781D01*
Y84828*
X165068Y84968*
X165068D02*
X165000Y85062D01*
X165000D02*
X164897Y85109D01*
X164897D02*
X164863D01*
X164863D02*
X164761Y85062D01*
X164761D02*
X164693Y84968D01*
X164693D02*
X164659Y84828D01*
X159000Y82796D02*
X159068Y82843D01*
X159068D02*
X159170Y82984D01*
Y82000*
X159647Y82984D02*
X159545Y82937D01*
X159545D02*
X159511Y82843D01*
X159511D02*
Y82750D01*
X159545Y82656*
X159613Y82609*
X159613D02*
X159750Y82562D01*
X159750D02*
X159852Y82515D01*
X159852D02*
X159920Y82421D01*
X159920D02*
X159954Y82328D01*
X159954D02*
Y82187D01*
X159954D02*
X159920Y82093D01*
X159920D02*
X159886Y82046D01*
X159886D02*
X159784Y82000D01*
X159647*
X159647D02*
X159545Y82046D01*
X159545D02*
X159511Y82093D01*
X159511D02*
X159477Y82187D01*
X159477D02*
Y82328D01*
X159511Y82421*
X159511D02*
X159579Y82515D01*
X159579D02*
X159681Y82562D01*
X159681D02*
X159818Y82609D01*
X159886Y82656*
X159920Y82750*
Y82843*
X159920D02*
X159886Y82937D01*
X159886D02*
X159784Y82984D01*
X159647*
X160295Y82093D02*
X160261Y82046D01*
X160261D02*
X160295Y82000D01*
X160329Y82046*
X160329D02*
X160295Y82093D01*
X160840Y82984D02*
X160738Y82937D01*
X160738D02*
X160670Y82796D01*
X160670D02*
X160636Y82562D01*
X160636D02*
Y82421D01*
X160636D02*
X160670Y82187D01*
X160670D02*
X160738Y82046D01*
X160738D02*
X160840Y82000D01*
X160840D02*
X160909D01*
X161011Y82046*
X161011D02*
X161079Y82187D01*
X161079D02*
X161113Y82421D01*
X161113D02*
Y82562D01*
X161113D02*
X161079Y82796D01*
X161079D02*
X161011Y82937D01*
X161011D02*
X160909Y82984D01*
X160840*
X161863D02*
X161522D01*
X161522D02*
X161488Y82562D01*
X161488D02*
X161522Y82609D01*
X161522D02*
X161625Y82656D01*
X161727*
X161829Y82609*
X161829D02*
X161897Y82515D01*
X161897D02*
X161931Y82375D01*
X161931D02*
X161897Y82281D01*
X161897D02*
X161863Y82140D01*
X161863D02*
X161795Y82046D01*
X161795D02*
X161693Y82000D01*
X161590*
X161590D02*
X161488Y82046D01*
X161488D02*
X161454Y82093D01*
X161454D02*
X161420Y82187D01*
X162272Y82093D02*
X162238Y82046D01*
X162238D02*
X162272Y82000D01*
X162272D02*
X162306Y82046D01*
X162306D02*
X162272Y82093D01*
X162647Y82750D02*
Y82796D01*
X162647D02*
X162681Y82890D01*
X162681D02*
X162715Y82937D01*
X162715D02*
X162784Y82984D01*
X162920*
X162988Y82937*
X162988D02*
X163022Y82890D01*
X163022D02*
X163056Y82796D01*
X163056D02*
Y82703D01*
X163056D02*
X163022Y82609D01*
X163022D02*
X162954Y82468D01*
X162954D02*
X162613Y82000D01*
X162613D02*
X163090D01*
X163602Y82984D02*
X163500Y82937D01*
X163500D02*
X163431Y82796D01*
X163431D02*
X163397Y82562D01*
X163397D02*
Y82421D01*
X163397D02*
X163431Y82187D01*
X163431D02*
X163500Y82046D01*
X163500D02*
X163602Y82000D01*
X163670*
X163772Y82046*
X163772D02*
X163840Y82187D01*
X163840D02*
X163875Y82421D01*
X163875D02*
Y82562D01*
X163875D02*
X163840Y82796D01*
X163840D02*
X163772Y82937D01*
X163772D02*
X163670Y82984D01*
X163602*
X164181Y82796D02*
X164250Y82843D01*
X164250D02*
X164352Y82984D01*
Y82000*
X165068Y82843D02*
X165034Y82937D01*
X165034D02*
X164931Y82984D01*
X164931D02*
X164863D01*
X164863D02*
X164761Y82937D01*
X164761D02*
X164693Y82796D01*
X164693D02*
X164659Y82562D01*
X164659D02*
Y82328D01*
X164693Y82140*
X164693D02*
X164761Y82046D01*
X164761D02*
X164863Y82000D01*
X164863D02*
X164897D01*
X164897D02*
X165000Y82046D01*
X165000D02*
X165068Y82140D01*
X165068D02*
X165102Y82281D01*
Y82328*
X165068Y82468*
X165068D02*
X165000Y82562D01*
X165000D02*
X164897Y82609D01*
X164897D02*
X164863D01*
X164863D02*
X164761Y82562D01*
X164761D02*
X164693Y82468D01*
X164693D02*
X164659Y82328D01*
X167000Y90484D02*
Y89500D01*
Y90484D02*
X167443D01*
X167000Y90015D02*
X167272D01*
X167000Y89500D02*
X167443D01*
X167852Y90484D02*
Y89687D01*
X167852D02*
X167886Y89546D01*
X167886D02*
X167954Y89500D01*
X167954D02*
X168022D01*
X167750Y90156D02*
X167988D01*
X168431Y90484D02*
Y89687D01*
X168431D02*
X168465Y89546D01*
X168465D02*
X168534Y89500D01*
X168602*
X168329Y90156D02*
X168568D01*
X168909Y89875D02*
X169318D01*
Y89968*
X169318D02*
X169284Y90062D01*
X169284D02*
X169250Y90109D01*
X169181Y90156*
X169181D02*
X169079D01*
X169079D02*
X169011Y90109D01*
X168943Y90015*
X168943D02*
X168909Y89875D01*
Y89781*
X168943Y89640*
X168943D02*
X169011Y89546D01*
X169011D02*
X169079Y89500D01*
X169079D02*
X169181D01*
X169181D02*
X169250Y89546D01*
X169250D02*
X169318Y89640D01*
X169625Y90156D02*
Y89171D01*
Y90015D02*
X169693Y90109D01*
X169761Y90156*
X169863*
X169863D02*
X169931Y90109D01*
X169931D02*
X170000Y90015D01*
X170000D02*
X170034Y89875D01*
Y89781*
X170000Y89640*
X170000D02*
X169931Y89546D01*
X169931D02*
X169863Y89500D01*
X169863D02*
X169761D01*
X169693Y89546*
X169693D02*
X169625Y89640D01*
X170340Y90484D02*
Y89500D01*
X171056Y90156D02*
Y89500D01*
Y90015D02*
X170988Y90109D01*
X170988D02*
X170920Y90156D01*
X170818*
X170750Y90109*
X170681Y90015*
X170681D02*
X170647Y89875D01*
X170647D02*
Y89781D01*
X170647D02*
X170681Y89640D01*
X170681D02*
X170750Y89546D01*
X170750D02*
X170818Y89500D01*
X170920*
X170988Y89546*
X170988D02*
X171056Y89640D01*
X171363Y90156D02*
Y89500D01*
Y89968D02*
X171465Y90109D01*
X171465D02*
X171534Y90156D01*
X171636*
X171704Y90109*
X171704D02*
X171738Y89968D01*
X171738D02*
Y89500D01*
X172659Y90671D02*
X172045Y89171D01*
X173204Y90484D02*
Y89500D01*
X172965Y90484D02*
X173443D01*
X173784Y89593D02*
X173750Y89546D01*
X173750D02*
X173784Y89500D01*
X173818Y89546*
X173818D02*
X173784Y89593D01*
X174397Y90484D02*
X174125Y89500D01*
X174397Y90484D02*
X174670Y89500D01*
X174227Y89828D02*
X174568D01*
X174977Y90156D02*
Y89500D01*
Y89875D02*
X175011Y90015D01*
X175011D02*
X175079Y90109D01*
X175079D02*
X175147Y90156D01*
X175147D02*
X175250D01*
X175556D02*
X175761Y89500D01*
X175965Y90156D02*
X175761Y89500D01*
X176681Y90156D02*
Y89500D01*
Y90015D02*
X176613Y90109D01*
X176613D02*
X176545Y90156D01*
X176443*
X176375Y90109*
X176306Y90015*
X176306D02*
X176272Y89875D01*
X176272D02*
Y89781D01*
X176272D02*
X176306Y89640D01*
X176306D02*
X176375Y89546D01*
X176375D02*
X176443Y89500D01*
X176545*
X176613Y89546*
X176613D02*
X176681Y89640D01*
X181500Y90640D02*
Y89000D01*
Y90640D02*
X182011D01*
X182011D02*
X182181Y90562D01*
X182181D02*
X182238Y90484D01*
X182238D02*
X182295Y90328D01*
Y90171*
X182295D02*
X182238Y90015D01*
X182238D02*
X182181Y89937D01*
X182181D02*
X182011Y89859D01*
X181500D02*
X182011D01*
X182181Y89781*
X182181D02*
X182238Y89703D01*
X182238D02*
X182295Y89546D01*
X182295D02*
Y89312D01*
X182295D02*
X182238Y89156D01*
X182238D02*
X182181Y89078D01*
X182181D02*
X182011Y89000D01*
X181500*
X183261Y90640D02*
X182806Y89000D01*
X183261Y90640D02*
X183715Y89000D01*
X182977Y89546D02*
X183545D01*
X184227Y90640D02*
Y89000D01*
Y90640D02*
X184738D01*
X184738D02*
X184909Y90562D01*
X184909D02*
X184965Y90484D01*
X184965D02*
X185022Y90328D01*
X185022D02*
Y90093D01*
X185022D02*
X184965Y89937D01*
X184965D02*
X184909Y89859D01*
X184738Y89781*
X184738D02*
X184227D01*
X185534Y90640D02*
Y89468D01*
X185534D02*
X185590Y89234D01*
X185590D02*
X185704Y89078D01*
X185704D02*
X185875Y89000D01*
X185988*
X185988D02*
X186159Y89078D01*
X186272Y89234*
X186272D02*
X186329Y89468D01*
X186329D02*
Y90640D01*
X186840Y89703D02*
X187863D01*
X188943Y90640D02*
X188375Y89546D01*
X188375D02*
X189227D01*
X188943Y90640D02*
Y89000D01*
X189852Y90640D02*
X190477D01*
X190477D02*
X190136Y90015D01*
X190136D02*
X190306D01*
X190306D02*
X190420Y89937D01*
X190420D02*
X190477Y89859D01*
X190534Y89625*
Y89468*
X190534D02*
X190477Y89234D01*
X190363Y89078*
X190363D02*
X190193Y89000D01*
X190022*
X190022D02*
X189852Y89078D01*
X189795Y89156*
X189738Y89312*
X191045Y90640D02*
X191840Y89000D01*
Y90640D02*
X191045Y89000D01*
X192352Y90328D02*
X192465Y90406D01*
X192465D02*
X192636Y90640D01*
X192636D02*
Y89000D01*
X181500Y87640D02*
Y86000D01*
Y87640D02*
X181954Y86000D01*
X182409Y87640D02*
X181954Y86000D01*
X182409Y87640D02*
Y86000D01*
X183375Y87640D02*
X182920Y86000D01*
X183375Y87640D02*
X183829Y86000D01*
X183090Y86546D02*
X183659D01*
X184340Y87640D02*
Y86000D01*
X184852Y87640D02*
Y86000D01*
Y87640D02*
X185647Y86000D01*
Y87640D02*
Y86000D01*
X188318Y87250D02*
X188261Y87406D01*
X188147Y87562*
X188147D02*
X188034Y87640D01*
X188034D02*
X187806D01*
X187806D02*
X187693Y87562D01*
X187693D02*
X187579Y87406D01*
X187579D02*
X187522Y87250D01*
X187522D02*
X187465Y87015D01*
X187465D02*
Y86625D01*
X187465D02*
X187522Y86390D01*
X187522D02*
X187579Y86234D01*
X187579D02*
X187693Y86078D01*
X187806Y86000*
X187806D02*
X188034D01*
X188147Y86078*
X188147D02*
X188261Y86234D01*
X188318Y86390*
X188829Y87640D02*
Y86000D01*
X189340Y87640D02*
Y86000D01*
Y87640D02*
X189852D01*
X189852D02*
X190022Y87562D01*
X190022D02*
X190079Y87484D01*
X190079D02*
X190136Y87328D01*
Y87171*
X190136D02*
X190079Y87015D01*
X190079D02*
X190022Y86937D01*
X190022D02*
X189852Y86859D01*
X189340*
X189738D02*
X190136Y86000D01*
X191500Y87250D02*
X191443Y87406D01*
X191329Y87562*
X191329D02*
X191215Y87640D01*
X191215D02*
X190988D01*
X190988D02*
X190875Y87562D01*
X190875D02*
X190761Y87406D01*
X190704Y87250*
X190704D02*
X190647Y87015D01*
X190647D02*
Y86625D01*
X190647D02*
X190704Y86390D01*
X190704D02*
X190761Y86234D01*
X190875Y86078*
X190988Y86000*
X190988D02*
X191215D01*
X191215D02*
X191329Y86078D01*
X191329D02*
X191443Y86234D01*
X191500Y86390*
X192011Y87640D02*
Y86468D01*
X192011D02*
X192068Y86234D01*
X192181Y86078*
X192181D02*
X192352Y86000D01*
X192465*
X192465D02*
X192636Y86078D01*
X192750Y86234*
X192806Y86468*
X192806D02*
Y87640D01*
X193318D02*
Y86000D01*
X194227Y87640D02*
Y86000D01*
X193829Y87640D02*
X194625D01*
X196443D02*
Y86000D01*
Y87640D02*
X196954D01*
X196954D02*
X197125Y87562D01*
X197125D02*
X197181Y87484D01*
X197181D02*
X197238Y87328D01*
X197238D02*
Y87171D01*
X197238D02*
X197181Y87015D01*
X197181D02*
X197125Y86937D01*
X197125D02*
X196954Y86859D01*
X196443D02*
X196954D01*
X196954D02*
X197125Y86781D01*
X197181Y86703*
X197181D02*
X197238Y86546D01*
X197238D02*
Y86312D01*
X197238D02*
X197181Y86156D01*
X197181D02*
X197125Y86078D01*
X196954Y86000*
X196954D02*
X196443D01*
X198090Y87640D02*
X197977Y87562D01*
X197977D02*
X197863Y87406D01*
X197863D02*
X197806Y87250D01*
X197806D02*
X197750Y87015D01*
X197750D02*
Y86625D01*
X197806Y86390*
X197806D02*
X197863Y86234D01*
X197863D02*
X197977Y86078D01*
X198090Y86000*
X198090D02*
X198318D01*
X198431Y86078*
X198431D02*
X198545Y86234D01*
X198602Y86390*
X198602D02*
X198659Y86625D01*
Y87015*
X198659D02*
X198602Y87250D01*
X198545Y87406*
X198431Y87562*
X198431D02*
X198318Y87640D01*
X198318D02*
X198090D01*
X199625D02*
X199170Y86000D01*
X199625Y87640D02*
X200079Y86000D01*
X199340Y86546D02*
X199909D01*
X200590Y87640D02*
Y86000D01*
Y87640D02*
X201102D01*
X201102D02*
X201272Y87562D01*
X201272D02*
X201329Y87484D01*
X201329D02*
X201386Y87328D01*
Y87171*
X201386D02*
X201329Y87015D01*
X201329D02*
X201272Y86937D01*
X201272D02*
X201102Y86859D01*
X200590*
X200988D02*
X201386Y86000D01*
X201897Y87640D02*
Y86000D01*
Y87640D02*
X202295D01*
X202295D02*
X202465Y87562D01*
X202465D02*
X202579Y87406D01*
X202579D02*
X202636Y87250D01*
X202693Y87015*
X202693D02*
Y86625D01*
X202636Y86390*
X202636D02*
X202579Y86234D01*
X202579D02*
X202465Y86078D01*
X202465D02*
X202295Y86000D01*
X201897*
X226500Y90484D02*
Y89500D01*
Y90484D02*
X226806D01*
X226806D02*
X226909Y90437D01*
X226909D02*
X226943Y90390D01*
X226943D02*
X226977Y90296D01*
X226977D02*
Y90203D01*
X226943Y90109*
X226909Y90062*
X226909D02*
X226806Y90015D01*
X226806D02*
X226500D01*
X226738D02*
X226977Y89500D01*
X227284Y90484D02*
Y89500D01*
Y90484D02*
X227727D01*
X227284Y90015D02*
X227556D01*
X227284Y89500D02*
X227727D01*
X228034Y90484D02*
Y89500D01*
Y90484D02*
X228477D01*
X228034Y90015D02*
X228306D01*
X228784Y90484D02*
Y89500D01*
Y90484D02*
X229227D01*
X228784Y90015D02*
X229056D01*
X228784Y89500D02*
X229227D01*
X229534Y90484D02*
Y89500D01*
Y90484D02*
X229840D01*
X229840D02*
X229943Y90437D01*
X229943D02*
X229977Y90390D01*
X229977D02*
X230011Y90296D01*
X230011D02*
Y90203D01*
X229977Y90109*
X229943Y90062*
X229943D02*
X229840Y90015D01*
X229840D02*
X229534D01*
X229772D02*
X230011Y89500D01*
X230795Y90343D02*
X230727Y90437D01*
X230727D02*
X230625Y90484D01*
X230488*
X230488D02*
X230386Y90437D01*
X230386D02*
X230318Y90343D01*
X230318D02*
Y90250D01*
X230352Y90156*
X230386Y90109*
X230454Y90062*
X230454D02*
X230659Y89968D01*
X230659D02*
X230727Y89921D01*
X230727D02*
X230761Y89875D01*
X230795Y89781*
Y89640*
X230795D02*
X230727Y89546D01*
X230727D02*
X230625Y89500D01*
X230488*
X230488D02*
X230386Y89546D01*
X230386D02*
X230318Y89640D01*
X231136Y90156D02*
X231102Y90109D01*
X231136Y90062*
X231136D02*
X231170Y90109D01*
X231136Y90156*
Y89593D02*
X231102Y89546D01*
X231102D02*
X231136Y89500D01*
X231170Y89546*
X231170D02*
X231136Y89593D01*
X226500Y82984D02*
X226772Y82000D01*
X227045Y82984D02*
X226772Y82000D01*
X227352Y82984D02*
Y82000D01*
X227659Y82984D02*
Y82000D01*
Y82984D02*
X228102D01*
X227659Y82515D02*
X227931D01*
X227659Y82000D02*
X228102D01*
X228409Y82984D02*
X228579Y82000D01*
X228750Y82984D02*
X228579Y82000D01*
X228750Y82984D02*
X228920Y82000D01*
X229090Y82984D02*
X228920Y82000D01*
X229431Y82656D02*
X229397Y82609D01*
X229397D02*
X229431Y82562D01*
X229431D02*
X229465Y82609D01*
X229465D02*
X229431Y82656D01*
Y82093D02*
X229397Y82046D01*
X229397D02*
X229431Y82000D01*
X229431D02*
X229465Y82046D01*
X229465D02*
X229431Y82093D01*
X230795Y82984D02*
Y82000D01*
X230556Y82984D02*
X231034D01*
X231545D02*
X231477Y82937D01*
X231477D02*
X231409Y82843D01*
X231409D02*
X231375Y82750D01*
X231340Y82609*
X231340D02*
Y82375D01*
X231340D02*
X231375Y82234D01*
X231409Y82140*
X231409D02*
X231477Y82046D01*
X231477D02*
X231545Y82000D01*
X231681*
X231681D02*
X231750Y82046D01*
X231750D02*
X231818Y82140D01*
X231818D02*
X231852Y82234D01*
X231886Y82375*
Y82609*
X231852Y82750*
X231818Y82843*
X231818D02*
X231750Y82937D01*
X231750D02*
X231681Y82984D01*
X231681D02*
X231545D01*
X232193D02*
Y82000D01*
Y82984D02*
X232500D01*
X232602Y82937*
X232602D02*
X232636Y82890D01*
X232636D02*
X232670Y82796D01*
X232670D02*
Y82656D01*
X232636Y82562*
X232636D02*
X232602Y82515D01*
X232602D02*
X232500Y82468D01*
X232500D02*
X232193D01*
X234238Y82843D02*
X234170Y82937D01*
X234170D02*
X234068Y82984D01*
X233931*
X233931D02*
X233829Y82937D01*
X233829D02*
X233761Y82843D01*
X233761D02*
Y82750D01*
X233795Y82656*
X233829Y82609*
X233829D02*
X233897Y82562D01*
X233897D02*
X234102Y82468D01*
X234102D02*
X234170Y82421D01*
X234170D02*
X234204Y82375D01*
X234204D02*
X234238Y82281D01*
X234238D02*
Y82140D01*
X234238D02*
X234170Y82046D01*
X234170D02*
X234068Y82000D01*
X233931*
X233931D02*
X233829Y82046D01*
X233829D02*
X233761Y82140D01*
X234545Y82984D02*
Y82000D01*
X234852Y82984D02*
Y82000D01*
Y82984D02*
X235090D01*
X235090D02*
X235193Y82937D01*
X235193D02*
X235261Y82843D01*
X235261D02*
X235295Y82750D01*
X235329Y82609*
X235329D02*
Y82375D01*
X235329D02*
X235295Y82234D01*
X235261Y82140*
X235261D02*
X235193Y82046D01*
X235193D02*
X235090Y82000D01*
X235090D02*
X234852D01*
X235636Y82984D02*
Y82000D01*
Y82984D02*
X236079D01*
X235636Y82515D02*
X235909D01*
X235636Y82000D02*
X236079D01*
X226500Y85484D02*
Y84500D01*
Y85484D02*
X226738D01*
X226738D02*
X226840Y85437D01*
X226840D02*
X226909Y85343D01*
X226909D02*
X226943Y85250D01*
X226977Y85109*
Y84875*
X226943Y84734*
X226909Y84640*
X226909D02*
X226840Y84546D01*
X226840D02*
X226738Y84500D01*
X226738D02*
X226500D01*
X227488Y85484D02*
X227420Y85437D01*
X227420D02*
X227352Y85343D01*
X227352D02*
X227318Y85250D01*
X227284Y85109*
Y84875*
X227318Y84734*
X227352Y84640*
X227352D02*
X227420Y84546D01*
X227420D02*
X227488Y84500D01*
X227488D02*
X227625D01*
X227693Y84546*
X227693D02*
X227761Y84640D01*
X227761D02*
X227795Y84734D01*
X227829Y84875*
X227829D02*
Y85109D01*
X227829D02*
X227795Y85250D01*
X227761Y85343*
X227761D02*
X227693Y85437D01*
X227693D02*
X227625Y85484D01*
X227488*
X228647Y85250D02*
X228613Y85343D01*
X228613D02*
X228545Y85437D01*
X228545D02*
X228477Y85484D01*
X228340*
X228340D02*
X228272Y85437D01*
X228272D02*
X228204Y85343D01*
X228204D02*
X228170Y85250D01*
X228136Y85109*
Y84875*
X228170Y84734*
X228204Y84640*
X228204D02*
X228272Y84546D01*
X228272D02*
X228340Y84500D01*
X228340D02*
X228477D01*
X228545Y84546*
X228545D02*
X228613Y84640D01*
X228613D02*
X228647Y84734D01*
X228988Y85156D02*
X228954Y85109D01*
X228954D02*
X228988Y85062D01*
X228988D02*
X229022Y85109D01*
X229022D02*
X228988Y85156D01*
Y84593D02*
X228954Y84546D01*
X228954D02*
X228988Y84500D01*
X228988D02*
X229022Y84546D01*
X229022D02*
X228988Y84593D01*
X230181Y85484D02*
X230556D01*
X230556D02*
X230352Y85109D01*
X230454*
X230454D02*
X230522Y85062D01*
X230522D02*
X230556Y85015D01*
X230556D02*
X230590Y84875D01*
X230590D02*
Y84781D01*
X230590D02*
X230556Y84640D01*
X230556D02*
X230488Y84546D01*
X230488D02*
X230386Y84500D01*
X230284*
X230181Y84546*
X230181D02*
X230147Y84593D01*
X230147D02*
X230113Y84687D01*
X231170Y85484D02*
X230897Y84500D01*
X231170Y85484D02*
X231443Y84500D01*
X231000Y84828D02*
X231340D01*
X231750Y85484D02*
X232227Y84500D01*
Y85484D02*
X231750Y84500D01*
X232534Y85484D02*
Y84500D01*
Y85484D02*
X232772D01*
X232772D02*
X232875Y85437D01*
X232875D02*
X232943Y85343D01*
X232943D02*
X232977Y85250D01*
X233011Y85109*
Y84875*
X232977Y84734*
X232943Y84640*
X232943D02*
X232875Y84546D01*
X232875D02*
X232772Y84500D01*
X232772D02*
X232534D01*
X233318Y85296D02*
X233386Y85343D01*
X233386D02*
X233488Y85484D01*
X233488D02*
Y84500D01*
X234000Y85484D02*
X233897Y85437D01*
X233897D02*
X233829Y85296D01*
X233829D02*
X233795Y85062D01*
X233795D02*
Y84921D01*
X233795D02*
X233829Y84687D01*
X233829D02*
X233897Y84546D01*
X233897D02*
X234000Y84500D01*
X234068*
X234170Y84546*
X234170D02*
X234238Y84687D01*
X234238D02*
X234272Y84921D01*
X234272D02*
Y85062D01*
X234272D02*
X234238Y85296D01*
X234238D02*
X234170Y85437D01*
X234170D02*
X234068Y85484D01*
X234000*
X234784D02*
X234681Y85437D01*
X234681D02*
X234613Y85296D01*
X234613D02*
X234579Y85062D01*
X234579D02*
Y84921D01*
X234579D02*
X234613Y84687D01*
X234613D02*
X234681Y84546D01*
X234681D02*
X234784Y84500D01*
X234852*
X234954Y84546*
X234954D02*
X235022Y84687D01*
X235022D02*
X235056Y84921D01*
X235056D02*
Y85062D01*
X235056D02*
X235022Y85296D01*
X235022D02*
X234954Y85437D01*
X234954D02*
X234852Y85484D01*
X234784*
X235568D02*
X235465Y85437D01*
X235465D02*
X235397Y85296D01*
X235397D02*
X235363Y85062D01*
X235363D02*
Y84921D01*
X235363D02*
X235397Y84687D01*
X235397D02*
X235465Y84546D01*
X235465D02*
X235568Y84500D01*
X235636*
X235738Y84546*
X235738D02*
X235806Y84687D01*
X235806D02*
X235840Y84921D01*
X235840D02*
Y85062D01*
X235840D02*
X235806Y85296D01*
X235806D02*
X235738Y85437D01*
X235738D02*
X235636Y85484D01*
X235568*
X236352D02*
X236250Y85437D01*
X236250D02*
X236181Y85296D01*
X236181D02*
X236147Y85062D01*
X236147D02*
Y84921D01*
X236147D02*
X236181Y84687D01*
X236181D02*
X236250Y84546D01*
X236250D02*
X236352Y84500D01*
X236420*
X236522Y84546*
X236522D02*
X236590Y84687D01*
X236590D02*
X236625Y84921D01*
X236625D02*
Y85062D01*
X236625D02*
X236590Y85296D01*
X236590D02*
X236522Y85437D01*
X236522D02*
X236420Y85484D01*
X236352*
X237000D02*
X237375D01*
X237170Y85109*
X237272*
X237272D02*
X237340Y85062D01*
X237340D02*
X237375Y85015D01*
X237375D02*
X237409Y84875D01*
Y84781*
X237375Y84640*
X237375D02*
X237306Y84546D01*
X237306D02*
X237204Y84500D01*
X237204D02*
X237102D01*
X237000Y84546*
X237000D02*
X236965Y84593D01*
X236965D02*
X236931Y84687D01*
X238193Y85484D02*
X237852Y84500D01*
X237715Y85484D02*
X238193D01*
X238943Y85156D02*
X238909Y85015D01*
X238909D02*
X238840Y84921D01*
X238840D02*
X238738Y84875D01*
X238738D02*
X238704D01*
X238704D02*
X238602Y84921D01*
X238602D02*
X238534Y85015D01*
X238534D02*
X238500Y85156D01*
Y85203*
X238534Y85343*
X238534D02*
X238602Y85437D01*
X238602D02*
X238704Y85484D01*
X238704D02*
X238738D01*
X238738D02*
X238840Y85437D01*
X238840D02*
X238909Y85343D01*
X238909D02*
X238943Y85156D01*
Y84921*
X238943D02*
X238909Y84687D01*
X238909D02*
X238840Y84546D01*
X238840D02*
X238738Y84500D01*
X238738D02*
X238670D01*
X238568Y84546*
X238568D02*
X238534Y84640D01*
X239454Y85484D02*
X239352Y85437D01*
X239352D02*
X239284Y85296D01*
X239284D02*
X239250Y85062D01*
X239250D02*
Y84921D01*
X239250D02*
X239284Y84687D01*
X239284D02*
X239352Y84546D01*
X239352D02*
X239454Y84500D01*
X239454D02*
X239522D01*
X239522D02*
X239625Y84546D01*
X239625D02*
X239693Y84687D01*
X239693D02*
X239727Y84921D01*
X239727D02*
Y85062D01*
X239727D02*
X239693Y85296D01*
X239693D02*
X239625Y85437D01*
X239625D02*
X239522Y85484D01*
X239522D02*
X239454D01*
X240034Y85296D02*
X240102Y85343D01*
X240102D02*
X240204Y85484D01*
X240204D02*
Y84500D01*
X240681Y85484D02*
X240579Y85437D01*
X240579D02*
X240545Y85343D01*
X240545D02*
Y85250D01*
X240579Y85156*
X240579D02*
X240647Y85109D01*
X240647D02*
X240784Y85062D01*
X240784D02*
X240886Y85015D01*
X240886D02*
X240954Y84921D01*
X240954D02*
X240988Y84828D01*
X240988D02*
Y84687D01*
X240988D02*
X240954Y84593D01*
X240954D02*
X240920Y84546D01*
X240920D02*
X240818Y84500D01*
X240681*
X240681D02*
X240579Y84546D01*
X240579D02*
X240545Y84593D01*
X240545D02*
X240511Y84687D01*
X240511D02*
Y84828D01*
X240545Y84921*
X240545D02*
X240613Y85015D01*
X240613D02*
X240715Y85062D01*
X240715D02*
X240852Y85109D01*
X240920Y85156*
X240954Y85250*
X240954D02*
Y85343D01*
X240954D02*
X240920Y85437D01*
X240920D02*
X240818Y85484D01*
X240681*
X244000Y90812D02*
Y89500D01*
Y90812D02*
X244409D01*
X244409D02*
X244545Y90750D01*
X244590Y90687*
X244590D02*
X244636Y90562D01*
X244636D02*
Y90437D01*
X244636D02*
X244590Y90312D01*
X244590D02*
X244545Y90250D01*
X244409Y90187*
X244409D02*
X244000D01*
X244318D02*
X244636Y89500D01*
X245045Y90812D02*
Y89500D01*
Y90812D02*
X245636D01*
X245045Y90187D02*
X245409D01*
X245045Y89500D02*
X245636D01*
X246045Y90812D02*
X246409Y89500D01*
X246772Y90812D02*
X246409Y89500D01*
X244500Y87296D02*
Y85000D01*
Y87296D02*
X245534D01*
X244500Y86203D02*
X245136D01*
X244500Y85000D02*
X245534D01*
X232000Y90484D02*
Y89500D01*
Y90484D02*
X232306D01*
X232306D02*
X232409Y90437D01*
X232409D02*
X232443Y90390D01*
X232443D02*
X232477Y90296D01*
X232477D02*
Y90203D01*
X232443Y90109*
X232409Y90062*
X232409D02*
X232306Y90015D01*
X232000D02*
X232306D01*
X232306D02*
X232409Y89968D01*
X232409D02*
X232443Y89921D01*
X232443D02*
X232477Y89828D01*
Y89687*
X232477D02*
X232443Y89593D01*
X232443D02*
X232409Y89546D01*
X232409D02*
X232306Y89500D01*
X232306D02*
X232000D01*
X233056Y90484D02*
X232784Y89500D01*
X233056Y90484D02*
X233329Y89500D01*
X232886Y89828D02*
X233227D01*
X234113Y90343D02*
X234045Y90437D01*
X234045D02*
X233943Y90484D01*
X233806*
X233806D02*
X233704Y90437D01*
X233704D02*
X233636Y90343D01*
X233636D02*
Y90250D01*
X233670Y90156*
X233704Y90109*
X233704D02*
X233772Y90062D01*
X233772D02*
X233977Y89968D01*
X233977D02*
X234045Y89921D01*
X234045D02*
X234079Y89875D01*
X234079D02*
X234113Y89781D01*
X234113D02*
Y89640D01*
X234113D02*
X234045Y89546D01*
X234045D02*
X233943Y89500D01*
X233806*
X233806D02*
X233704Y89546D01*
X233704D02*
X233636Y89640D01*
X234420Y90484D02*
Y89500D01*
Y90484D02*
X234863D01*
X234420Y90015D02*
X234693D01*
X234420Y89500D02*
X234863D01*
X235170Y90484D02*
Y89500D01*
Y90484D02*
X235647Y89500D01*
Y90484D02*
Y89500D01*
X235954Y90484D02*
Y89781D01*
X235954D02*
X235988Y89640D01*
X235988D02*
X236056Y89546D01*
X236056D02*
X236159Y89500D01*
X236227*
X236329Y89546*
X236329D02*
X236397Y89640D01*
X236397D02*
X236431Y89781D01*
X236431D02*
Y90484D01*
X236977D02*
Y89500D01*
X236738Y90484D02*
X237215D01*
X167340Y87984D02*
Y87234D01*
X167340D02*
X167306Y87093D01*
X167306D02*
X167272Y87046D01*
X167272D02*
X167204Y87000D01*
X167204D02*
X167136D01*
X167068Y87046*
X167068D02*
X167034Y87093D01*
X167034D02*
X167000Y87234D01*
Y87328*
X167647Y87656D02*
Y87187D01*
X167647D02*
X167681Y87046D01*
X167681D02*
X167750Y87000D01*
X167852*
X167920Y87046*
X167920D02*
X168022Y87187D01*
Y87656D02*
Y87000D01*
X168704Y87515D02*
X168670Y87609D01*
X168568Y87656*
X168465*
X168465D02*
X168363Y87609D01*
X168363D02*
X168329Y87515D01*
X168329D02*
X168363Y87421D01*
X168363D02*
X168431Y87375D01*
X168431D02*
X168602Y87328D01*
X168670Y87281*
X168704Y87187*
X168704D02*
Y87140D01*
X168704D02*
X168670Y87046D01*
X168670D02*
X168568Y87000D01*
X168465*
X168465D02*
X168363Y87046D01*
X168363D02*
X168329Y87140D01*
X169386Y87515D02*
X169352Y87609D01*
X169250Y87656*
X169147*
X169147D02*
X169045Y87609D01*
X169011Y87515*
X169011D02*
X169045Y87421D01*
X169045D02*
X169113Y87375D01*
X169113D02*
X169284Y87328D01*
X169352Y87281*
X169386Y87187*
X169386D02*
Y87140D01*
X169386D02*
X169352Y87046D01*
X169352D02*
X169250Y87000D01*
X169147*
X169147D02*
X169045Y87046D01*
X169045D02*
X169011Y87140D01*
X169693Y87984D02*
X169727Y87937D01*
X169727D02*
X169761Y87984D01*
X169727Y88031*
X169693Y87984*
X169727Y87656D02*
Y87000D01*
X171329Y87843D02*
X171261Y87937D01*
X171261D02*
X171159Y87984D01*
X171022*
X171022D02*
X170920Y87937D01*
X170920D02*
X170852Y87843D01*
X170852D02*
Y87750D01*
X170886Y87656*
X170920Y87609*
X170988Y87562*
X170988D02*
X171193Y87468D01*
X171193D02*
X171261Y87421D01*
X171261D02*
X171295Y87375D01*
X171329Y87281*
X171329D02*
Y87140D01*
X171329D02*
X171261Y87046D01*
X171261D02*
X171159Y87000D01*
X171022*
X171022D02*
X170920Y87046D01*
X170920D02*
X170852Y87140D01*
X171636Y87656D02*
Y87187D01*
X171636D02*
X171670Y87046D01*
X171670D02*
X171738Y87000D01*
X171738D02*
X171840D01*
X171840D02*
X171909Y87046D01*
X171909D02*
X172011Y87187D01*
Y87656D02*
Y87000D01*
X172488Y87656D02*
X172420Y87609D01*
X172352Y87515*
X172352D02*
X172318Y87375D01*
Y87281*
X172352Y87140*
X172352D02*
X172420Y87046D01*
X172420D02*
X172488Y87000D01*
X172488D02*
X172590D01*
X172590D02*
X172659Y87046D01*
X172659D02*
X172727Y87140D01*
X172727D02*
X172761Y87281D01*
Y87375*
X172727Y87515*
X172727D02*
X172659Y87609D01*
X172590Y87656*
X172590D02*
X172488D01*
X173068D02*
Y87000D01*
Y87375D02*
X173102Y87515D01*
X173102D02*
X173170Y87609D01*
X173238Y87656*
X173238D02*
X173340D01*
X173750Y87984D02*
Y87187D01*
X173750D02*
X173784Y87046D01*
X173784D02*
X173852Y87000D01*
X173920*
X173647Y87656D02*
X173886D01*
X174329Y87984D02*
Y87187D01*
X174329D02*
X174363Y87046D01*
X174363D02*
X174431Y87000D01*
X174431D02*
X174500D01*
X174227Y87656D02*
X174465D01*
X174806Y87984D02*
X174840Y87937D01*
X174840D02*
X174875Y87984D01*
X174840Y88031*
X174840D02*
X174806Y87984D01*
X174840Y87656D02*
Y87000D01*
X167238Y85484D02*
Y84500D01*
X167000Y85484D02*
X167477D01*
X167784Y84875D02*
X168193D01*
Y84968*
X168193D02*
X168159Y85062D01*
X168159D02*
X168125Y85109D01*
X168056Y85156*
X168056D02*
X167954D01*
X167954D02*
X167886Y85109D01*
X167818Y85015*
X167818D02*
X167784Y84875D01*
Y84781*
X167818Y84640*
X167818D02*
X167886Y84546D01*
X167886D02*
X167954Y84500D01*
X167954D02*
X168056D01*
X168056D02*
X168125Y84546D01*
X168125D02*
X168193Y84640D01*
X168500Y84875D02*
X168909D01*
Y84968*
X168909D02*
X168875Y85062D01*
X168875D02*
X168840Y85109D01*
X168840D02*
X168772Y85156D01*
X168772D02*
X168670D01*
X168602Y85109*
X168534Y85015*
X168534D02*
X168500Y84875D01*
Y84781*
X168534Y84640*
X168534D02*
X168602Y84546D01*
X168602D02*
X168670Y84500D01*
X168772*
X168772D02*
X168840Y84546D01*
X168840D02*
X168909Y84640D01*
X169215Y85156D02*
Y84500D01*
Y84968D02*
X169318Y85109D01*
X169386Y85156*
X169488*
X169488D02*
X169556Y85109D01*
X169556D02*
X169590Y84968D01*
X169590D02*
Y84500D01*
Y84968D02*
X169693Y85109D01*
X169761Y85156*
X169863*
X169863D02*
X169931Y85109D01*
X169931D02*
X169965Y84968D01*
X169965D02*
Y84500D01*
X170272Y85156D02*
Y84687D01*
X170272D02*
X170306Y84546D01*
X170306D02*
X170375Y84500D01*
X170477*
X170545Y84546*
X170545D02*
X170647Y84687D01*
Y85156D02*
Y84500D01*
X171738Y85484D02*
Y84500D01*
X172215Y85484D02*
X171738Y84828D01*
X171909Y85062D02*
X172215Y84500D01*
X172693Y85156D02*
X172625Y85109D01*
X172556Y85015*
X172556D02*
X172522Y84875D01*
X172522D02*
Y84781D01*
X172522D02*
X172556Y84640D01*
X172556D02*
X172625Y84546D01*
X172625D02*
X172693Y84500D01*
X172795*
X172863Y84546*
X172863D02*
X172931Y84640D01*
X172931D02*
X172965Y84781D01*
X172965D02*
Y84875D01*
X172965D02*
X172931Y85015D01*
X172931D02*
X172863Y85109D01*
X172863D02*
X172795Y85156D01*
X172693*
X173272Y85484D02*
X173306Y85437D01*
X173306D02*
X173340Y85484D01*
X173340D02*
X173306Y85531D01*
X173306D02*
X173272Y85484D01*
X173306Y85156D02*
Y84500D01*
X173647Y85156D02*
X173852Y84500D01*
X174056Y85156D02*
X173852Y84500D01*
X174363Y85156D02*
Y84687D01*
X174363D02*
X174397Y84546D01*
X174397D02*
X174465Y84500D01*
X174465D02*
X174568D01*
X174636Y84546*
X174636D02*
X174738Y84687D01*
Y85156D02*
Y84500D01*
X175045Y85156D02*
Y84500D01*
Y84968D02*
X175147Y85109D01*
X175147D02*
X175215Y85156D01*
X175215D02*
X175318D01*
X175386Y85109*
X175420Y84968*
X175420D02*
Y84500D01*
X175727Y85484D02*
X175761Y85437D01*
X175761D02*
X175795Y85484D01*
X175761Y85531*
X175727Y85484*
X175761Y85156D02*
Y84500D01*
X176102Y84875D02*
X176511D01*
Y84968*
X176511D02*
X176477Y85062D01*
X176477D02*
X176443Y85109D01*
X176375Y85156*
X176272*
X176272D02*
X176204Y85109D01*
X176204D02*
X176136Y85015D01*
X176136D02*
X176102Y84875D01*
Y84781*
X176136Y84640*
X176136D02*
X176204Y84546D01*
X176204D02*
X176272Y84500D01*
X176272D02*
X176375D01*
X176443Y84546*
X176443D02*
X176511Y84640D01*
X176818Y85156D02*
Y84500D01*
Y84968D02*
X176920Y85109D01*
X176988Y85156*
X176988D02*
X177090D01*
X177090D02*
X177159Y85109D01*
X177193Y84968*
X177193D02*
Y84500D01*
Y84968D02*
X177295Y85109D01*
X177363Y85156*
X177363D02*
X177465D01*
X177465D02*
X177534Y85109D01*
X177568Y84968*
X177568D02*
Y84500D01*
X177875Y85484D02*
X177909Y85437D01*
X177909D02*
X177943Y85484D01*
X177909Y85531*
X177875Y85484*
X177909Y85156D02*
Y84500D01*
X167000Y82984D02*
Y82000D01*
Y82984D02*
X167443D01*
X167000Y82515D02*
X167272D01*
X167000Y82000D02*
X167443D01*
X167852Y82984D02*
Y82187D01*
X167852D02*
X167886Y82046D01*
X167886D02*
X167954Y82000D01*
X167954D02*
X168022D01*
X167750Y82656D02*
X167988D01*
X168431Y82984D02*
Y82187D01*
X168431D02*
X168465Y82046D01*
X168465D02*
X168534Y82000D01*
X168602*
X168329Y82656D02*
X168568D01*
X168909Y82375D02*
X169318D01*
Y82468*
X169318D02*
X169284Y82562D01*
X169284D02*
X169250Y82609D01*
X169181Y82656*
X169181D02*
X169079D01*
X169079D02*
X169011Y82609D01*
X168943Y82515*
X168943D02*
X168909Y82375D01*
Y82281*
X168943Y82140*
X168943D02*
X169011Y82046D01*
X169011D02*
X169079Y82000D01*
X169079D02*
X169181D01*
X169181D02*
X169250Y82046D01*
X169250D02*
X169318Y82140D01*
X169625Y82656D02*
Y81671D01*
Y82515D02*
X169693Y82609D01*
X169761Y82656*
X169863*
X169863D02*
X169931Y82609D01*
X169931D02*
X170000Y82515D01*
X170000D02*
X170034Y82375D01*
Y82281*
X170000Y82140*
X170000D02*
X169931Y82046D01*
X169931D02*
X169863Y82000D01*
X169863D02*
X169761D01*
X169693Y82046*
X169693D02*
X169625Y82140D01*
X170340Y82984D02*
Y82000D01*
X171056Y82656D02*
Y82000D01*
Y82515D02*
X170988Y82609D01*
X170988D02*
X170920Y82656D01*
X170818*
X170750Y82609*
X170681Y82515*
X170681D02*
X170647Y82375D01*
X170647D02*
Y82281D01*
X170647D02*
X170681Y82140D01*
X170681D02*
X170750Y82046D01*
X170750D02*
X170818Y82000D01*
X170920*
X170988Y82046*
X170988D02*
X171056Y82140D01*
X171363Y82656D02*
Y82000D01*
Y82468D02*
X171465Y82609D01*
X171465D02*
X171534Y82656D01*
X171636*
X171704Y82609*
X171704D02*
X171738Y82468D01*
X171738D02*
Y82000D01*
X172659Y83171D02*
X172045Y81671D01*
X173204Y82984D02*
Y82000D01*
X172965Y82984D02*
X173443D01*
X173784Y82093D02*
X173750Y82046D01*
X173750D02*
X173784Y82000D01*
X173818Y82046*
X173818D02*
X173784Y82093D01*
X174397Y82984D02*
X174125Y82000D01*
X174397Y82984D02*
X174670Y82000D01*
X174227Y82328D02*
X174568D01*
X174977Y82656D02*
Y82000D01*
Y82375D02*
X175011Y82515D01*
X175011D02*
X175079Y82609D01*
X175079D02*
X175147Y82656D01*
X175147D02*
X175250D01*
X175556D02*
X175761Y82000D01*
X175965Y82656D02*
X175761Y82000D01*
X176681Y82656D02*
Y82000D01*
Y82515D02*
X176613Y82609D01*
X176613D02*
X176545Y82656D01*
X176443*
X176375Y82609*
X176306Y82515*
X176306D02*
X176272Y82375D01*
X176272D02*
Y82281D01*
X176272D02*
X176306Y82140D01*
X176306D02*
X176375Y82046D01*
X176375D02*
X176443Y82000D01*
X176545*
X176613Y82046*
X176613D02*
X176681Y82140D01*
X134500Y91500D02*
Y81500D01*
X248000*
Y91500*
X134500*
X151000D02*
Y81500D01*
X242500Y91500D02*
Y81500D01*
X180500Y91500D02*
Y81500D01*
X225500Y91500D02*
Y81500D01*
G54D111*
X158500Y91500D02*
Y81500D01*
X151000Y89000D02*
X180500D01*
X151000Y86500D02*
X180500D01*
X151000Y84000D02*
X180500D01*
X166500Y89000D02*
Y90000D01*
Y86500D02*
Y87500D01*
Y84000D02*
Y85000D01*
Y81500D02*
Y82500D01*
X225500Y89000D02*
X242500D01*
X225500Y86500D02*
X242500D01*
X225500Y84000D02*
X242500D01*
G54D183*
X236000Y214500D03*
X207500Y271500D03*
X170000Y167000D03*
Y150000D03*
X171500Y137500D03*
X177500Y259500D03*
G54D208*
G54D222*
X226500Y141000D03*
X223500D03*
X231500D03*
X228500D03*
X185500Y236500D03*
X188500D03*
X152000Y172000D03*
X149000D03*
Y169500D03*
X152000D03*
Y154500D03*
X149000D03*
Y152000D03*
X152000D03*
X153500Y143000D03*
X150500D03*
Y140500D03*
X153500D03*
X238000Y199500D03*
X235000D03*
X238000Y197000D03*
X235000D03*
X233000Y103500D03*
X236000D03*
X238000D03*
X241000D03*
X243000D03*
X246000D03*
X248000D03*
X251000D03*
X228000Y108500D03*
X231000D03*
X233000D03*
X236000D03*
X238000D03*
X241000D03*
X243000D03*
X246000D03*
X130500Y204000D03*
X133500D03*
Y201500D03*
X136500D03*
Y204000D03*
X139500D03*
Y201500D03*
X142500D03*
Y204000D03*
X145500D03*
X132500Y197500D03*
X135500D03*
X137500D03*
X140500D03*
X142500D03*
X145500D03*
X238000Y159500D03*
X235000D03*
X237800Y149800D03*
X234800D03*
X238000Y165000D03*
X235000D03*
X175500Y139500D03*
X178500D03*
X207100Y262500D03*
X204100D03*
X226000Y261600D03*
X223000D03*
G54D223*
X241000Y226500D03*
Y223500D03*
X247500Y206000D03*
Y203000D03*
X241000Y221500D03*
Y218500D03*
X246000Y239500D03*
Y242500D03*
X251000Y106000D03*
Y109000D03*
X228000Y103000D03*
Y106000D03*
X176500Y252500D03*
Y249500D03*
X168000Y236000D03*
Y233000D03*
X170500Y236000D03*
Y233000D03*
X212400Y274300D03*
Y271300D03*
X216000Y266500D03*
Y269500D03*
Y261500D03*
Y264500D03*
X218500Y275000D03*
Y272000D03*
X231000Y212000D03*
Y215000D03*
X235800Y173300D03*
Y176300D03*
X168500Y171000D03*
Y174000D03*
X168000Y153500D03*
Y156500D03*
X202500Y273000D03*
Y270000D03*
X191000Y254000D03*
Y257000D03*
X193500Y254000D03*
Y257000D03*
X235000Y226000D03*
Y223000D03*
G54D224*
X166000Y255500D03*
Y245300D03*
G54D225*
X116000Y254000D03*
Y212000D03*
X126000Y170000D03*
Y128000D03*
X116000Y254000D02*
X119300Y249250D01*
X116000Y212000D02*
X119300Y207250D01*
X126000Y170000D02*
X122700Y174750D01*
X126000Y128000D02*
X122700Y132750D01*
G54D226*
X252000Y100200D03*
X250750D03*
X253250D03*
X249500D03*
X254500D03*
X252000Y277800D03*
X253250D03*
X250750D03*
X254500D03*
X249500D03*
X100200Y268000D03*
Y269250D03*
Y266750D03*
Y270500D03*
Y265500D03*
Y228500D03*
Y229750D03*
Y227250D03*
Y231000D03*
Y226000D03*
X181000Y277800D03*
X182250D03*
X179750D03*
X183500D03*
X178500D03*
X100200Y110000D03*
Y111250D03*
Y108750D03*
Y112500D03*
Y107500D03*
X261800Y110000D03*
Y108750D03*
Y111250D03*
Y107500D03*
Y112500D03*
Y268000D03*
Y266750D03*
Y269250D03*
Y265500D03*
Y270500D03*
Y149500D03*
Y148250D03*
Y150750D03*
Y147000D03*
Y152000D03*
Y184750D03*
Y183500D03*
Y186000D03*
Y182250D03*
Y187250D03*
X112000Y100200D03*
X110750D03*
X113250D03*
X109500D03*
X114500D03*
X110000Y277800D03*
X111250D03*
X108750D03*
X112500D03*
X107500D03*
X100200Y149500D03*
Y150750D03*
Y148250D03*
Y152000D03*
Y147000D03*
Y184750D03*
Y186000D03*
Y183500D03*
Y187250D03*
Y182250D03*
X181000Y100200D03*
X179750D03*
X182250D03*
X178500D03*
X183500D03*
X261800Y228500D03*
Y227250D03*
Y229750D03*
Y226000D03*
Y231000D03*
X264200Y268000D03*
Y269250D03*
Y266750D03*
Y270500D03*
Y265500D03*
X274000Y277800D03*
X275250D03*
X272750D03*
X276500D03*
X271500D03*
X345000D03*
X346250D03*
X343750D03*
X347500D03*
X342500D03*
X416000D03*
X417250D03*
X414750D03*
X418500D03*
X413500D03*
X425800Y268000D03*
Y266750D03*
Y269250D03*
Y265500D03*
Y270500D03*
Y228500D03*
Y227250D03*
Y229750D03*
Y226000D03*
Y231000D03*
Y184750D03*
Y183500D03*
Y186000D03*
Y182250D03*
Y187250D03*
Y149500D03*
Y148250D03*
Y150750D03*
Y147000D03*
Y152000D03*
Y110000D03*
Y108750D03*
Y111250D03*
Y107500D03*
Y112500D03*
X416000Y100200D03*
X414750D03*
X417250D03*
X413500D03*
X418500D03*
X345000D03*
X343750D03*
X346250D03*
X342500D03*
X347500D03*
X276000D03*
X274750D03*
X277250D03*
X273500D03*
X278500D03*
X264200Y110000D03*
Y111250D03*
Y108750D03*
Y112500D03*
Y107500D03*
Y149500D03*
Y150750D03*
Y148250D03*
Y152000D03*
Y147000D03*
Y184750D03*
Y186000D03*
Y183500D03*
Y187250D03*
Y182250D03*
Y228500D03*
Y229750D03*
Y227250D03*
Y231000D03*
Y226000D03*
X96000Y277800D03*
X97250D03*
X94750D03*
X96000Y100200D03*
X94750D03*
X97250D03*
X430000D03*
X428750D03*
X431250D03*
X430000Y277800D03*
X431250D03*
X428750D03*
G54D227*
X98000Y95000D03*
X428000D03*
X210500Y251500D03*
X98000Y283000D03*
X428000D03*
X118900Y105950D03*
X141000Y190000D03*
G54D269*
X241000Y203900D03*
Y202100D03*
X178500Y158600D03*
Y160400D03*
X231500Y175600D03*
Y177400D03*
X236500Y115600D03*
Y117400D03*
X178500Y170100D03*
Y171900D03*
X181700Y240600D03*
Y238800D03*
X214600Y271300D03*
Y273100D03*
X230700Y270600D03*
Y272400D03*
X228500Y214400D03*
Y212600D03*
X176500Y136400D03*
Y134600D03*
G54D270*
X233450Y151850D03*
Y153750D03*
X231150Y152800D03*
X233450Y155350D03*
Y157250D03*
X231150Y156300D03*
X233450Y166850D03*
Y168750D03*
X231150Y167800D03*
X233450Y170350D03*
Y172250D03*
X231150Y171300D03*
X246850Y199450D03*
Y197550D03*
X249150Y198500D03*
X178200Y245550D03*
Y247450D03*
X175900Y246500D03*
X183650Y235050D03*
Y236950D03*
X181350Y236000D03*
X179700Y247450D03*
Y245550D03*
X182000Y246500D03*
X250150Y111050D03*
Y112950D03*
X247850Y112000D03*
X243150Y197550D03*
Y199450D03*
X240850Y198500D03*
X179150Y231550D03*
Y233450D03*
X176850Y232500D03*
X151650Y165550D03*
Y167450D03*
X149350Y166500D03*
X151650Y148050D03*
Y149950D03*
X149350Y149000D03*
X153650Y136550D03*
Y138450D03*
X151350Y137500D03*
X242850Y203950D03*
Y202050D03*
X245150Y203000D03*
X181000Y251850D03*
Y253750D03*
X178700Y252800D03*
G54D271*
X242950Y194650D03*
X241050D03*
X242000Y192350D03*
X174950Y233650D03*
X173050D03*
X174000Y231350D03*
X251550Y269350D03*
X253450D03*
X252500Y271650D03*
X249950D03*
X248050D03*
X249000Y269350D03*
X235950Y204150D03*
X234050D03*
X235000Y201850D03*
X248050Y240350D03*
X249950D03*
X249000Y242650D03*
X246050Y192350D03*
X247950D03*
X247000Y194650D03*
X180450Y136650D03*
X178550D03*
X179500Y134350D03*
X171950Y158150D03*
X170050D03*
X171000Y155850D03*
X172450Y175150D03*
X170550D03*
X171500Y172850D03*
G54D272*
X250650Y146500D03*
X252350D03*
X147650Y202500D03*
X149350D03*
X247150Y134800D03*
X248850D03*
X233150Y130500D03*
X234850D03*
X248850Y130000D03*
X247150D03*
X245350Y140000D03*
X243650D03*
X185750Y249000D03*
X187450D03*
X178150Y168000D03*
X179850D03*
X178150Y156500D03*
X179850D03*
X176650Y141500D03*
X178350D03*
X231350Y174000D03*
X229650D03*
X244350Y205500D03*
X242650D03*
X238150Y140000D03*
X239850D03*
X246150Y232000D03*
X247850D03*
X151850Y163500D03*
X150150D03*
X151850Y146500D03*
X150150D03*
X153350Y135000D03*
X151650D03*
X249350Y122000D03*
X247650D03*
X249350Y120500D03*
X247650D03*
X246150Y244500D03*
X247850D03*
X240150Y123500D03*
X241850D03*
X245850D03*
X244150D03*
X247650Y119000D03*
X249350D03*
X246150Y229000D03*
X247850D03*
X253650Y111000D03*
X255350D03*
X247650Y117500D03*
X249350D03*
X233150Y129000D03*
X234850D03*
X248850Y128500D03*
X247150D03*
X147650Y195500D03*
X149350D03*
X147650Y201000D03*
X149350D03*
X185750Y253500D03*
X187450D03*
X250650Y148000D03*
X252350D03*
X231150Y147800D03*
X229450D03*
X231150Y161300D03*
X229450D03*
X231150Y162800D03*
X229450D03*
X187450Y252000D03*
X185750D03*
X246150Y237000D03*
X247850D03*
X245350Y141500D03*
X243650D03*
X248150Y238500D03*
X249850D03*
X250350Y259500D03*
X248650D03*
X180850Y249000D03*
X179150D03*
X246150Y230500D03*
X247850D03*
X245550Y259500D03*
X247250D03*
X179850Y173500D03*
X178150D03*
X179850Y162000D03*
X178150D03*
X180150Y141500D03*
X181850D03*
X185750Y250500D03*
X187450D03*
X247650Y265500D03*
X249350D03*
X257750Y167500D03*
X259450D03*
X245650Y157000D03*
X247350D03*
X228650Y134500D03*
X230350D03*
X228650Y133000D03*
X230350D03*
X247350Y158500D03*
X245650D03*
X248850Y137800D03*
X247150D03*
X248850Y136300D03*
X247150D03*
X245350Y175500D03*
X243650D03*
X247350Y161500D03*
X245650D03*
X247350Y177000D03*
X245650D03*
X256650Y174000D03*
X258350D03*
X243150Y148000D03*
X244850D03*
X243150Y146500D03*
X244850D03*
X255850Y145000D03*
X254150D03*
X247550Y148000D03*
X249250D03*
X247550Y146500D03*
X249250D03*
X252350Y145000D03*
X250650D03*
X245650Y164500D03*
X247350D03*
X245350Y174000D03*
X243650D03*
X245650Y160000D03*
X247350D03*
X245650Y178500D03*
X247350D03*
X258350Y172500D03*
X256650D03*
G54D273*
X222500Y120350D03*
Y118650D03*
X250500Y167150D03*
Y168850D03*
X252000Y167150D03*
Y168850D03*
X247000Y151350D03*
Y149650D03*
X259450Y164350D03*
Y162650D03*
X222000Y125850D03*
Y124150D03*
X225000Y127850D03*
Y126150D03*
X182500Y250150D03*
Y251850D03*
X236500Y139150D03*
Y140850D03*
Y137350D03*
Y135650D03*
Y132150D03*
Y133850D03*
X245500Y131650D03*
Y133350D03*
X248500Y149650D03*
Y151350D03*
X245500Y137850D03*
Y136150D03*
X180500Y243850D03*
Y242150D03*
X247500Y222350D03*
Y220650D03*
X232800Y149650D03*
Y147950D03*
X233000Y158750D03*
Y160450D03*
Y165350D03*
Y163650D03*
X190500Y235150D03*
Y236850D03*
X236500Y130350D03*
Y128650D03*
X245500Y130350D03*
Y128650D03*
X249500Y262250D03*
Y263950D03*
X184000Y250150D03*
Y251850D03*
X182500Y233350D03*
Y231650D03*
X255000Y168850D03*
Y167150D03*
X256450Y155650D03*
Y157350D03*
X238500Y120150D03*
Y121850D03*
X259450Y159150D03*
Y160850D03*
X243300Y152450D03*
Y154150D03*
Y157650D03*
Y155950D03*
Y166450D03*
Y168150D03*
Y171650D03*
Y169950D03*
X241500Y140150D03*
Y141850D03*
X257950Y164350D03*
Y162650D03*
X181000Y231650D03*
Y233350D03*
X223500Y131350D03*
Y129650D03*
X147500Y204150D03*
Y205850D03*
X238500Y115650D03*
Y117350D03*
X236000Y122850D03*
Y121150D03*
X229500Y175650D03*
Y177350D03*
X193500Y236850D03*
Y235150D03*
X248000Y263950D03*
Y262250D03*
X247000Y140650D03*
Y142350D03*
X227000Y120150D03*
Y121850D03*
X245000Y197650D03*
Y199350D03*
X237500Y202150D03*
Y203850D03*
X239000D03*
Y202150D03*
X182000Y243850D03*
Y242150D03*
X244500Y193850D03*
Y192150D03*
X239500D03*
Y193850D03*
X226500Y138350D03*
Y136650D03*
X223500Y127850D03*
Y126150D03*
X247500Y166150D03*
Y167850D03*
Y224150D03*
Y225850D03*
X249000D03*
Y224150D03*
X192000Y236850D03*
Y235150D03*
X224000Y120350D03*
Y118650D03*
X233500Y140850D03*
Y139150D03*
Y133850D03*
Y132150D03*
X247000Y133350D03*
Y131650D03*
X253500Y167150D03*
Y168850D03*
X256450Y162650D03*
Y164350D03*
X235000Y133850D03*
Y132150D03*
Y140850D03*
Y139150D03*
X248500Y133350D03*
Y131650D03*
X256450Y160850D03*
Y159150D03*
X247000Y175350D03*
Y173650D03*
G54D276*
X200500Y251500D03*
X207591Y258550D03*
G54D277*
X219500Y266700D03*
Y262300D03*
X244500Y221300D03*
Y225700D03*
X229500Y266700D03*
Y262300D03*
G54D279*
X236000Y212000D03*
X207500Y274000D03*
X170000Y164500D03*
Y147500D03*
X171500Y135000D03*
X177500Y257000D03*
G54D280*
X196500Y270000D03*
X225000D03*
X244500Y215000D03*
X187000Y270000D03*
G54D281*
X196500Y273500D03*
X225000D03*
X244500Y211500D03*
X213000Y241000D03*
X198000D03*
X187000Y273500D03*
G54D282*
X234150Y114190D03*
Y115460D03*
Y116730D03*
Y118000D03*
Y119270D03*
Y120540D03*
Y121810D03*
X228850D03*
Y120540D03*
Y119270D03*
Y118000D03*
Y116730D03*
Y115460D03*
Y114190D03*
X240350Y121810D03*
Y120540D03*
Y119270D03*
Y118000D03*
Y116730D03*
Y115460D03*
Y114190D03*
X245650D03*
Y115460D03*
Y116730D03*
Y118000D03*
Y119270D03*
Y120540D03*
Y121810D03*
X238350Y138310D03*
Y137040D03*
Y135770D03*
Y134500D03*
Y133230D03*
Y131960D03*
Y130690D03*
X243650D03*
Y131960D03*
Y133230D03*
Y134500D03*
Y135770D03*
Y137040D03*
Y138310D03*
X254650Y157690D03*
Y158960D03*
Y160230D03*
Y161500D03*
Y162770D03*
Y164040D03*
Y165310D03*
X249350D03*
Y164040D03*
Y162770D03*
Y161500D03*
Y160230D03*
Y158960D03*
Y157690D03*
Y180310D03*
Y179040D03*
Y177770D03*
Y176500D03*
Y175230D03*
Y173960D03*
Y172690D03*
X254650D03*
Y173960D03*
Y175230D03*
Y176500D03*
Y177770D03*
Y179040D03*
Y180310D03*
G54D287*
X222500Y231500D03*
X232500D03*
X237500D03*
X242500D03*
X237500Y256500D03*
X232500D03*
X227500D03*
X222500D03*
X217500D03*
X145500Y266500D03*
Y272600D03*
X159000Y272500D03*
Y266400D03*
X169500Y272500D03*
Y266400D03*
G54D288*
X156500Y176000D03*
Y170000D03*
X208000Y235500D03*
Y229500D03*
Y227500D03*
Y221500D03*
G54D289*
X253600Y109000D03*
X255400D03*
X247600Y115500D03*
X249400D03*
X180600Y139500D03*
X182400D03*
X231200Y149800D03*
X229400D03*
X231200Y159300D03*
X229400D03*
X231200Y164800D03*
X229400D03*
X252900Y155500D03*
X251100D03*
X252900Y153500D03*
X251100D03*
X247900Y234000D03*
X246100D03*
X147600Y197500D03*
X149400D03*
X249900Y267500D03*
X248100D03*
X214600Y275000D03*
X216400D03*
X239900Y142000D03*
X238100D03*
X238600Y128500D03*
X240400D03*
X243900D03*
X242100D03*
X183600Y239000D03*
X185400D03*
X244500Y218900D03*
X246300D03*
X170100Y154000D03*
X171900D03*
X170600Y171000D03*
X172400D03*
X201100Y275000D03*
X202900D03*
X251100Y182500D03*
X252900D03*
G54D290*
X212500Y235000D03*
Y227500D03*
X196000Y230000D03*
X201080D03*
G54D292*
X241500Y152895D03*
Y154165D03*
Y155435D03*
Y156705D03*
X236100D03*
Y155435D03*
Y154165D03*
Y152895D03*
X241500Y167395D03*
Y168665D03*
Y169935D03*
Y171205D03*
X236100D03*
Y169935D03*
Y168665D03*
Y167395D03*
G54D293*
X187405Y246700D03*
X186135D03*
X184865D03*
X183595D03*
Y241300D03*
X184865D03*
X186135D03*
X187405D03*
G54D296*
X246730Y246500D03*
X249270D03*
Y257500D03*
X246730D03*
G54D297*
X250150Y151550D03*
Y149650D03*
X252850D03*
Y151550D03*
G54D298*
X250150Y150600D03*
G54D299*
X217500Y231500D03*
G54D304*
X126000Y220000D03*
X120000D03*
X126000Y225500D03*
X120000D03*
X126000Y231000D03*
X120000D03*
X126000Y236500D03*
X120000D03*
X126000Y242000D03*
X120000D03*
X115000Y220000D03*
X109000D03*
X115000Y225500D03*
X109000D03*
X115000Y231000D03*
X109000D03*
X115000Y236500D03*
X109000D03*
X115000Y242000D03*
X109000D03*
X112000Y162500D03*
X118000D03*
X112000Y157000D03*
X118000D03*
X112000Y151500D03*
X118000D03*
X112000Y146000D03*
X118000D03*
X123000Y157000D03*
X129000D03*
X123000Y151500D03*
X129000D03*
X123000Y146000D03*
X129000D03*
X123000Y140500D03*
X129000D03*
X112000D03*
X118000D03*
X123000Y162500D03*
X129000D03*
G54D306*
X231500Y221350D03*
Y225650D03*
G54D327*
X209350Y128445D03*
Y127175D03*
Y125905D03*
Y124635D03*
Y123365D03*
Y122095D03*
Y120825D03*
Y119555D03*
X218650D03*
Y120825D03*
Y122095D03*
Y123365D03*
Y124635D03*
Y125905D03*
Y127175D03*
Y128445D03*
G54D328*
X253600Y264450D03*
G54D329*
X256140D03*
X253600Y261910D03*
X256140D03*
X253600Y259370D03*
X256140D03*
X253600Y256830D03*
X256140D03*
X253600Y246670D03*
X256140D03*
X253600Y244130D03*
X256140D03*
X253600Y241590D03*
X256140D03*
X253600Y239050D03*
X256140D03*
X253600Y236510D03*
X256140D03*
X253600Y233970D03*
X256140D03*
X253600Y231430D03*
X256140D03*
X253600Y228890D03*
X256140D03*
X253600Y226350D03*
X256140D03*
X253600Y223810D03*
X256140D03*
X253600Y221270D03*
X256140D03*
X253600Y218730D03*
X256140D03*
X253600Y216190D03*
X256140D03*
X253600Y213650D03*
X256140D03*
X253600Y211110D03*
X256140D03*
X253600Y208570D03*
X256140D03*
X253600Y206030D03*
X256140D03*
X253600Y203490D03*
X256140D03*
X253600Y200950D03*
X256140D03*
X253600Y198410D03*
X256140D03*
G54D340*
X200800Y173000D03*
G54D342*
X235000Y221000D03*
Y218000D03*
X206300Y265050D03*
Y268050D03*
X203000Y265050D03*
Y268050D03*
G54D343*
X211400D03*
Y261150D03*
G54D344*
X154150Y166770D03*
Y165500D03*
Y164230D03*
X164850D03*
Y165500D03*
Y166770D03*
X154150Y149770D03*
Y148500D03*
Y147230D03*
X164850D03*
Y148500D03*
Y149770D03*
X155650Y137770D03*
Y136500D03*
Y135230D03*
X166350D03*
Y136500D03*
Y137770D03*
G54D345*
X223000Y265600D03*
X226000D03*
G54D346*
X220175Y224000D03*
X224825D03*
X212675D03*
X217325D03*
X164825Y170000D03*
X160175D03*
X164825Y153000D03*
X160175D03*
X166325Y141000D03*
X161675D03*
G54D348*
X224900Y200600D03*
G54D349*
X241500Y264500D03*
X241500D03*
G54D350*
X239000D03*
X239000D03*
X236500D03*
G54D364*
X213350Y207000D03*
X218650D03*
G54D365*
X119300Y249250D03*
Y207250D03*
X122700Y174750D03*
Y132750D03*
G54D366*
X230450Y138850D03*
X228550D03*
Y136150D03*
X230450D03*
G54D367*
X229500Y138850D03*
G54D368*
X153300Y241500D03*
X150760Y259300D03*
G54D369*
X180000Y219000D03*
X169000D03*
X158000D03*
X143000D03*
G54D370*
Y115100D03*
X147000D03*
X153160Y104940D03*
X157160D03*
X163320Y115100D03*
X167320D03*
X173480Y104940D03*
X177480D03*
X183640Y115100D03*
X187640D03*
X193800Y104940D03*
X197800D03*
G54D371*
X103500Y274800D03*
X141000Y233000D03*
Y149000D03*
X103500Y191000D03*
Y103200D03*
X258500D03*
Y191000D03*
Y274800D03*
G54D380*
X193500Y240500D03*
G54D381*
Y245950D03*
Y251400D03*
X0Y0D02*
M02*
