%
M48
METRIC,TZ
T01C0.8
T02C1.0
T03C1.2
T04C3.2
T05C1.5
%
T01
X10.0Y10.0
X15.0Y10.0
X20.0Y10.0
X10.0Y15.0
X15.0Y15.0
X20.0Y15.0
X10.0Y20.0
X15.0Y20.0
X20.0Y20.0
T02
X25.0Y10.0
X30.0Y10.0
X25.0Y15.0
X30.0Y15.0
X25.0Y20.0
X30.0Y20.0
T03
X35.0Y10.0
X40.0Y10.0
X35.0Y15.0
X40.0Y15.0
X35.0Y20.0
X40.0Y20.0
T04
X50.0Y50.0
X55.0Y50.0
T05
X45.0Y10.0
X50.0Y10.0
X45.0Y15.0
X50.0Y15.0
M30
